<svg width="100" height="100" viewBox="0 0 100 100" fill="none" xmlns="http://www.w3.org/2000/svg">
<g clip-path="url(#clip0)">
<path d="M97.8612 25.166C96.3657 23.5666 94.2525 22.6494 92.0636 22.6494C91.4638 22.6494 90.871 22.7162 90.2927 22.8487V12.7893C90.2927 11.0896 88.9099 9.70675 87.2101 9.70675H76.277C75.5391 9.70675 74.8446 10.0665 74.419 10.6692C73.9944 11.2706 73.8879 12.0435 74.1342 12.7366C74.3696 13.3995 74.4606 14.0977 74.4047 14.8114C74.2127 17.2635 72.2172 19.237 69.7628 19.4018C68.3573 19.4948 67.0184 19.0213 65.9956 18.0647C64.9716 17.1071 64.4075 15.8081 64.4075 14.4069C64.4075 13.8327 64.5042 13.27 64.6948 12.7341C64.9407 12.0425 64.8345 11.271 64.4106 10.6702C63.9847 10.0667 63.2896 9.70636 62.5509 9.70636H38.3235C38.5028 8.92433 38.5614 8.11906 38.4975 7.30246C38.1926 3.41088 35.0259 0.279262 31.1311 0.0177403C28.9058 -0.132064 26.7884 0.621252 25.1667 2.13804C23.5673 3.63354 22.6501 5.74681 22.6501 7.93566C22.6501 8.53546 22.7169 9.12823 22.8494 9.70655H12.79C11.0903 9.70655 9.70745 11.0894 9.70745 12.7892V23.7223C9.70745 24.4602 10.0672 25.1547 10.6699 25.5803C11.2713 26.0047 12.0442 26.1115 12.7373 25.8652C13.4004 25.6299 14.098 25.5387 14.8123 25.5947C17.2644 25.7867 19.2379 27.7822 19.4027 30.2367C19.497 31.6429 19.0222 32.9808 18.0656 34.0039C17.108 35.0279 15.809 35.5919 14.4078 35.5919C13.8336 35.5919 13.2709 35.4953 12.735 35.3046C12.0436 35.0586 11.2719 35.165 10.6711 35.5888C10.0676 36.0148 9.70725 36.7099 9.70725 37.4484V61.6758C8.92522 61.4967 8.11996 61.4381 7.30336 61.5018C3.41178 61.8064 0.279961 64.9732 0.0186347 68.8681C-0.130778 71.0925 0.622147 73.2107 2.13893 74.8327C3.63443 76.4321 5.7477 77.3493 7.93656 77.3493C8.53636 77.3493 9.12913 77.2825 9.70745 77.1501V87.2092C9.70745 88.909 11.0903 90.2918 12.79 90.2918H23.7234C24.4613 90.2918 25.1558 89.9321 25.5814 89.3293C26.006 88.728 26.1124 87.9551 25.8661 87.262C25.6308 86.5989 25.5398 85.9008 25.5956 85.187C25.7876 82.7348 27.7831 80.7614 30.2376 80.5966C31.6431 80.5032 32.9817 80.977 34.0048 81.9337C35.0288 82.8913 35.5928 84.1903 35.5928 85.5915C35.5928 86.1657 35.4962 86.7284 35.3055 87.2643C35.0596 87.9559 35.1659 88.7274 35.5897 89.3282C36.0157 89.9317 36.7108 90.292 37.4493 90.292H61.6767C61.4972 91.0741 61.4388 91.8793 61.5026 92.6959C61.8075 96.5875 64.9743 99.7193 68.869 99.9806C69.0544 99.9931 69.2389 99.9994 69.4223 99.9994C71.4428 99.9994 73.3467 99.2508 74.8334 97.8605C76.4328 96.365 77.35 94.2518 77.35 92.0629C77.35 91.4631 77.2832 90.8703 77.1508 90.292H87.2099C88.9097 90.292 90.2925 88.9092 90.2925 87.2094V76.2763C90.2925 75.5384 89.9328 74.8439 89.33 74.4183C88.7289 73.9941 87.9562 73.8872 87.2627 74.1335C86.5996 74.3689 85.9015 74.4603 85.1877 74.404C82.7355 74.212 80.7621 72.2165 80.5973 69.7621C80.5029 68.3558 80.9777 67.0179 81.9344 65.9949C82.892 64.9709 84.191 64.4068 85.5922 64.4068C86.1664 64.4068 86.7291 64.5035 87.265 64.6941C87.9566 64.9402 88.7281 64.8338 89.3289 64.4099C89.9324 63.984 90.2927 63.2889 90.2927 62.5502V38.3228C91.0747 38.5021 91.8798 38.5607 92.6966 38.4968C96.5882 38.1919 99.72 35.0252 99.9813 31.1304C100.131 28.906 99.3778 26.7879 97.8612 25.166ZM14.4078 38.5216C16.5967 38.5216 18.7097 37.6042 20.2054 36.0048C21.722 34.383 22.4751 32.2646 22.3257 30.0404C22.0642 26.1455 18.9324 22.9787 15.0408 22.6741C14.224 22.6104 13.4193 22.6686 12.6369 22.8481V12.7893C12.6369 12.705 12.7057 12.6364 12.7899 12.6364H23.723C24.4615 12.6364 25.1566 12.2761 25.5826 11.6726C26.0066 11.0718 26.1128 10.3003 25.8669 9.60851C25.6763 9.07277 25.5796 8.50988 25.5796 7.93566C25.5796 6.5345 26.1435 5.23548 27.1675 4.27807C28.1905 3.32143 29.5288 2.84702 30.9347 2.94097C33.389 3.10581 35.3844 5.07923 35.5766 7.53117C35.6325 8.24543 35.5415 8.94347 35.3059 9.60636C35.0598 10.2997 35.1663 11.0726 35.5909 11.6739C36.0165 12.2765 36.7108 12.6364 37.4487 12.6364H48.535V23.7225C48.535 24.4604 48.8947 25.1549 49.4974 25.5805C50.0988 26.0051 50.8715 26.1117 51.5652 25.8654C52.2281 25.6301 52.9265 25.5393 53.6398 25.5949C56.0921 25.7869 58.0656 27.7826 58.2302 30.2369C58.3245 31.6431 57.8497 32.981 56.8931 34.0041C55.9355 35.0281 54.6365 35.5919 53.2353 35.5919C52.6613 35.5919 52.0982 35.4953 51.5625 35.3046C50.8709 35.0589 50.0994 35.165 49.4988 35.5888C48.8953 36.0148 48.535 36.7099 48.535 37.4484V48.5345H38.3227C38.4551 47.9561 38.5219 47.3634 38.5219 46.7636C38.5219 44.5747 37.6045 42.4616 36.0053 40.9659C34.3835 39.4493 32.2659 38.6956 30.0409 38.8458C26.146 39.1074 22.9792 42.2392 22.6746 46.1306C22.6107 46.9472 22.6691 47.7522 22.8486 48.5345H12.6371V38.3222C13.2154 38.4548 13.808 38.5216 14.4078 38.5216ZM48.5353 87.3624H38.3231C38.4555 86.784 38.5223 86.1913 38.5223 85.5917C38.5223 83.4028 37.6049 81.2897 36.0055 79.794C34.3837 78.2774 32.2661 77.5253 30.0411 77.6737C26.1462 77.9353 22.9794 81.0671 22.6748 84.9586C22.6109 85.7751 22.6693 86.5803 22.8488 87.3625H12.79C12.7057 87.3625 12.6371 87.2938 12.6371 87.2096V76.2767C12.6371 75.5382 12.2768 74.8431 11.6733 74.4171C11.0725 73.9931 10.301 73.887 9.6092 74.1327C9.07347 74.3234 8.51058 74.42 7.93656 74.42C6.53539 74.42 5.23638 73.8562 4.27877 72.8322C3.32213 71.8091 2.84733 70.4712 2.94166 69.065C3.10651 66.6107 5.07993 64.6152 7.53207 64.423C8.24574 64.3674 8.94417 64.4582 9.60706 64.6937C10.3006 64.9402 11.0733 64.8334 11.6746 64.4088C12.2772 63.9832 12.6371 63.2889 12.6371 62.551V51.4647H23.7234C24.4611 51.4647 25.1556 51.1049 25.5812 50.5022C26.0058 49.9008 26.1124 49.128 25.8661 48.4345C25.6308 47.7718 25.5398 47.0735 25.5956 46.3599C25.7876 43.9077 27.7831 41.9343 30.2376 41.7695C31.6431 41.6759 32.9817 42.1499 34.0048 43.1066C35.0288 44.0642 35.5926 45.3632 35.5926 46.7643C35.5926 47.3386 35.496 47.9013 35.3053 48.4372C35.0594 49.1288 35.1657 49.9005 35.5897 50.501C36.0157 51.1046 36.7108 51.4649 37.4493 51.4649H48.5353V61.6771C47.957 61.5447 47.3643 61.4779 46.7645 61.4779C44.5756 61.4779 42.4625 62.3953 40.9668 63.9945C39.4502 65.6166 38.6971 67.7347 38.8467 69.9589C39.1082 73.8538 42.2401 77.0206 46.1315 77.3253C46.9477 77.3892 47.7529 77.3308 48.5353 77.1513V87.3624ZM87.363 61.6764C86.7847 61.5439 86.192 61.4771 85.5924 61.4771C83.4035 61.4771 81.2904 62.3945 79.7947 63.9939C78.2781 65.6158 77.525 67.7341 77.6744 69.9584C77.936 73.8532 81.068 77.02 84.9594 77.3247C85.7761 77.3886 86.581 77.3302 87.3632 77.1507V87.2094C87.3632 87.2938 87.2945 87.3624 87.2103 87.3624H76.2772C75.5387 87.3624 74.8436 87.7227 74.4176 88.3262C73.9936 88.927 73.8873 89.6985 74.1332 90.3903C74.3239 90.926 74.4205 91.4889 74.4205 92.0629C74.4205 93.4641 73.8567 94.7631 72.8327 95.7207C71.8096 96.6773 70.4719 97.1516 69.0653 97.0578C66.611 96.893 64.6155 94.9195 64.4233 92.4676C64.3675 91.7533 64.4585 91.0553 64.694 90.3924C64.9401 89.6991 64.8337 88.9262 64.4089 88.3248C63.9833 87.7223 63.289 87.3624 62.5511 87.3624H51.4648V76.2763C51.4648 75.5384 51.1051 74.8439 50.5023 74.4183C49.901 73.9937 49.1283 73.887 48.4346 74.1333C47.7719 74.3687 47.0734 74.4597 46.36 74.4038C43.9078 74.2118 41.9344 72.2163 41.7696 69.7619C41.6752 68.3556 42.15 67.0177 43.1067 65.9945C44.0643 64.9705 45.3633 64.4066 46.7643 64.4066C47.3385 64.4066 47.9012 64.5033 48.4371 64.6939C49.1287 64.94 49.9002 64.8336 50.501 64.4096C51.1045 63.9836 51.4648 63.2885 51.4648 62.55V51.4639H61.6771C61.5446 52.0422 61.4778 52.635 61.4778 53.2348C61.4778 55.4237 62.3952 57.5367 63.9944 59.0324C65.4813 60.4229 67.385 61.1713 69.4055 61.1713C69.5889 61.1713 69.7737 61.165 69.9589 61.1525C73.8538 60.891 77.0205 57.7592 77.3252 53.8678C77.3891 53.0512 77.3307 52.2461 77.1512 51.4639H87.363V61.6764ZM97.0583 30.9342C96.8935 33.3884 94.92 35.3839 92.4681 35.5761C91.7536 35.632 91.0558 35.541 90.3931 35.3054C89.6998 35.0593 88.9271 35.166 88.3255 35.5906C87.723 36.0162 87.363 36.7105 87.363 37.4484V48.5346H76.277C75.5391 48.5346 74.8446 48.8944 74.419 49.4971C73.9944 50.0985 73.8877 50.8714 74.134 51.5649C74.3694 52.2276 74.4604 52.9258 74.4045 53.6395C74.2125 56.0916 72.217 58.0651 69.7626 58.2299C68.3571 58.3233 67.0182 57.8494 65.9952 56.8928C64.9712 55.9352 64.4073 54.6362 64.4073 53.2352C64.4073 52.661 64.504 52.0983 64.6946 51.5624C64.9405 50.8708 64.8343 50.0991 64.4103 49.4985C63.9843 48.895 63.2892 48.5346 62.5507 48.5346H51.4646V38.3224C52.0429 38.4548 52.6357 38.5216 53.2355 38.5216C55.4244 38.5216 57.5374 37.6042 59.0331 36.005C60.5497 34.3832 61.3028 32.265 61.1534 30.0406C60.8919 26.1457 57.7601 22.9787 53.8685 22.6742C53.0521 22.6104 52.2468 22.6688 51.4646 22.8483V12.6364H61.6769C61.5444 13.2147 61.4776 13.8075 61.4776 14.4071C61.4776 16.596 62.395 18.709 63.9944 20.2047C65.6163 21.7213 67.7343 22.4739 69.9589 22.325C73.8538 22.0635 77.0205 18.9317 77.3252 15.0401C77.3891 14.2237 77.3307 13.4184 77.1512 12.6362H87.2099C87.2943 12.6362 87.3628 12.705 87.3628 12.7892V23.7223C87.3628 24.4608 87.7232 25.1559 88.3267 25.5819C88.9275 26.0059 89.699 26.1117 90.3908 25.8662C90.9265 25.6756 91.4894 25.5789 92.0636 25.5789C93.4648 25.5789 94.7638 26.1428 95.7212 27.1668C96.678 28.19 97.1528 29.5279 97.0583 30.9342Z" fill="#151720"/>
</g>
<defs>
<clipPath id="clip0">
<rect width="100" height="100" fill="white"/>
</clipPath>
</defs>
</svg>
