<svg width="102" height="102" viewBox="0 0 102 102" fill="none" xmlns="http://www.w3.org/2000/svg">
<path d="M74.3018 83.7987L67.5018 76.9986C66.837 76.3338 65.7626 76.3338 65.0981 76.9986C64.4335 77.6634 64.4335 78.7378 65.0981 79.4024L71.898 86.2025C72.2295 86.534 72.6648 86.7006 73.0999 86.7006C73.5352 86.7006 73.9703 86.534 74.3018 86.2025C74.9666 85.5377 74.9666 84.4633 74.3018 83.7987Z" fill="#151720"/>
<path d="M74.3018 76.9986C73.637 76.3338 72.5626 76.3338 71.898 76.9986L65.0981 83.7985C64.4335 84.4633 64.4335 85.5377 65.0981 86.2023C65.4296 86.5338 65.8648 86.7004 66.2999 86.7004C66.7352 86.7004 67.1703 86.5338 67.5018 86.2023L74.3018 79.4024C74.9666 78.7378 74.9666 77.6634 74.3018 76.9986Z" fill="#151720"/>
<path d="M37.3995 69.7002C33.6492 69.7002 30.5996 72.75 30.5996 76.5001C30.5996 80.2504 33.6494 83.3001 37.3995 83.3001C41.1496 83.3001 44.1995 80.2502 44.1995 76.5001C44.1997 72.7498 41.1498 69.7002 37.3995 69.7002ZM37.3995 79.9002C35.5245 79.9002 33.9995 78.3754 33.9995 76.5001C33.9995 74.6251 35.5243 73.1001 37.3995 73.1001C39.2748 73.1001 40.7996 74.6251 40.7996 76.5001C40.7996 78.3752 39.2748 79.9002 37.3995 79.9002Z" fill="#151720"/>
<path d="M64.6027 56.0996C60.8524 56.0996 57.8027 59.1495 57.8027 62.8995C57.8027 66.6498 60.8526 69.6995 64.6027 69.6995C68.3528 69.6995 71.4026 66.6496 71.4026 62.8995C71.4026 59.1495 68.3528 56.0996 64.6027 56.0996ZM64.6027 66.2996C62.7276 66.2996 61.2026 64.7748 61.2026 62.8995C61.2026 61.0245 62.7274 59.4995 64.6027 59.4995C66.4779 59.4995 68.0027 61.0243 68.0027 62.8995C68.0025 64.7748 66.4777 66.2996 64.6027 66.2996Z" fill="#151720"/>
<path d="M43.7023 42.9981L30.1024 29.398C29.4376 28.7332 28.3632 28.7332 27.6986 29.398C27.034 30.0628 27.034 31.1372 27.6986 31.8018L41.2985 45.4019C41.63 45.7334 42.0653 45.8999 42.5004 45.8999C42.9357 45.8999 43.3708 45.7334 43.7023 45.4019C44.3671 44.7371 44.3671 43.6627 43.7023 42.9981Z" fill="#151720"/>
<path d="M43.7025 29.398C43.0377 28.7332 41.9633 28.7332 41.2987 29.398L27.6986 42.9981C27.034 43.6629 27.034 44.7373 27.6986 45.4019C28.0301 45.7334 28.4654 45.8999 28.9005 45.8999C29.3356 45.8999 29.7709 45.7334 30.1024 45.4019L43.7025 31.8018C44.3673 31.1372 44.3673 30.0628 43.7025 29.398Z" fill="#151720"/>
<path d="M62.9011 32.3008C61.9628 32.3008 61.2012 33.0606 61.2012 34.0007C61.2012 47.1246 50.5252 57.8008 37.4011 57.8008C36.4628 57.8008 35.7012 58.5606 35.7012 59.5007C35.7012 60.4408 36.4628 61.2006 37.4011 61.2006C52.3985 61.2006 64.601 48.9981 64.601 34.0007C64.6012 33.0608 63.8396 32.3008 62.9011 32.3008Z" fill="#151720"/>
<path d="M70.8987 39.5974L64.0988 32.7974C63.434 32.1326 62.3596 32.1326 61.695 32.7974L54.8951 39.5974C54.2303 40.2619 54.2303 41.3365 54.8951 42.0011C55.5597 42.6659 56.6343 42.6659 57.2989 42.0011L62.8969 36.4031L68.495 42.0011C68.8265 42.3326 69.2617 42.4992 69.6968 42.4992C70.1321 42.4992 70.5672 42.3326 70.8987 42.0011C71.5633 41.3365 71.5633 40.2619 70.8987 39.5974Z" fill="#151720"/>
<path d="M65.3985 5.1H61.0482C59.7834 5.1 58.5747 4.48461 57.8149 3.45266C56.2237 1.29193 53.6753 0 50.9996 0C48.3239 0 45.7755 1.29193 44.1843 3.45266C43.4245 4.48461 42.2157 5.1 40.951 5.1H36.6007C33.2909 5.1 30.5996 7.79284 30.5996 11.1011V20.4C30.5996 21.3401 31.3612 22.0999 32.2995 22.0999H69.6995C70.6378 22.0999 71.3994 21.3401 71.3994 20.4V11.1011C71.3996 7.79284 68.7086 5.1 65.3985 5.1ZM67.9995 18.7001H33.9997V11.1011C33.9997 9.66789 35.1675 8.50007 36.6007 8.50007H40.951C43.2918 8.50007 45.5241 7.36791 46.9232 5.46895C47.8904 4.15311 49.3764 3.40007 50.9998 3.40007C52.6232 3.40007 54.109 4.15311 55.078 5.46895C56.4753 7.36791 58.7076 8.50007 61.0484 8.50007H65.3987C66.8319 8.50007 67.9997 9.66789 67.9997 11.1011V18.7001H67.9995Z" fill="#151720"/>
<path d="M81.6005 8.5H69.7005C68.7622 8.5 68.0006 9.25982 68.0006 10.1999V18.7H34.0005V10.1999C34.0005 9.25982 33.2389 8.5 32.3006 8.5H20.4005C15.7136 8.5 11.9004 12.313 11.9004 17.0001V93.5001C11.9004 98.1869 15.7136 102 20.4005 102H81.6005C86.2873 102 90.1005 98.1869 90.1005 93.4999V16.9999C90.1005 12.313 86.2873 8.5 81.6005 8.5ZM86.7005 93.4999C86.7005 96.3116 84.4122 98.5999 81.6005 98.5999H20.4005C17.5887 98.5999 15.3005 96.3116 15.3005 93.4999V16.9999C15.3005 14.1881 17.5887 11.8999 20.4005 11.8999H30.6005V20.3999C30.6005 21.34 31.3621 22.0999 32.3004 22.0999H69.7003C70.6386 22.0999 71.4002 21.34 71.4002 20.3999V11.8999H81.6003C84.412 11.8999 86.7003 14.1881 86.7003 16.9999V93.4999H86.7005Z" fill="#151720"/>
<path d="M78.1971 15.2998H69.6971C68.7587 15.2998 67.9971 16.0596 67.9971 16.9997V18.6997H33.9973V16.9997C33.9973 16.0596 33.2357 15.2998 32.2973 15.2998H23.7973C20.9855 15.2998 18.6973 17.588 18.6973 20.3998V90.0999C18.6973 92.9116 20.9855 95.1999 23.7973 95.1999H78.1973C81.0091 95.1999 83.2973 92.9116 83.2973 90.0999V20.3998C83.2971 17.588 81.0089 15.2998 78.1971 15.2998ZM79.8973 90.0999C79.8973 91.0382 79.1341 91.7998 78.1973 91.7998H23.7973C22.8605 91.7998 22.0973 91.0382 22.0973 90.0999V20.3998C22.0973 19.4615 22.8605 18.6999 23.7973 18.6999H30.5972V20.3998C30.5972 21.3399 31.3588 22.0997 32.2971 22.0997H69.6971C70.6354 22.0997 71.397 21.3399 71.397 20.3998V18.6999H78.1969C79.1337 18.6999 79.8969 19.4615 79.8969 20.3998V90.0999H79.8973Z" fill="#151720"/>
<path d="M52.7089 6.7998H49.2919C47.4218 6.7998 45.9004 8.32124 45.9004 10.1913V13.6083C45.9004 15.4784 47.4218 16.9998 49.2919 16.9998H52.7089C54.579 16.9998 56.1004 15.4784 56.1004 13.6083V10.1913C56.1004 8.32144 54.579 6.7998 52.7089 6.7998ZM49.3005 13.6083L49.2919 10.1999L52.7003 10.1913L52.7021 13.5997L49.3005 13.6083Z" fill="#151720"/>
</svg>
