<svg width="92" height="92" viewBox="0 0 92 92" fill="none" xmlns="http://www.w3.org/2000/svg">
<path d="M74.4696 53.7961C74.3063 53.7968 74.1445 53.7654 73.9934 53.7036C73.8422 53.6418 73.7048 53.5508 73.5888 53.4359C73.4728 53.3209 73.3807 53.1843 73.3175 53.0337C73.2543 52.8832 73.2215 52.7217 73.2207 52.5584C73.22 52.3951 73.2514 52.2333 73.3132 52.0822C73.375 51.9311 73.466 51.7936 73.5809 51.6777C73.6958 51.5617 73.8325 51.4695 73.983 51.4063C74.1336 51.3432 74.2951 51.3103 74.4584 51.3096H74.4696C74.7993 51.3096 75.1155 51.4406 75.3487 51.6737C75.5818 51.9069 75.7128 52.2231 75.7128 52.5528C75.7128 52.8825 75.5818 53.1988 75.3487 53.4319C75.1155 53.6651 74.7993 53.7961 74.4696 53.7961Z" fill="#151720"/>
<path d="M61.5766 53.7961C61.2469 53.7977 60.93 53.6683 60.6957 53.4363C60.4614 53.2043 60.3288 52.8888 60.3272 52.559C60.3255 52.2293 60.4549 51.9124 60.6869 51.6781C60.9189 51.4438 61.2345 51.3112 61.5642 51.3096H61.5766C61.9064 51.3096 62.2226 51.4406 62.4557 51.6737C62.6889 51.9069 62.8199 52.2231 62.8199 52.5528C62.8199 52.8825 62.6889 53.1988 62.4557 53.4319C62.2226 53.6651 61.9064 53.7961 61.5766 53.7961Z" fill="#151720"/>
<path d="M61.5636 53.8025C61.2351 53.8025 60.92 53.6726 60.6871 53.441C60.4542 53.2095 60.3223 52.8952 60.3203 52.5668C60.3189 52.3423 60.3782 52.1216 60.4921 51.9281C60.6059 51.7346 60.7701 51.5756 60.967 51.4679C61.164 51.3602 61.3864 51.3078 61.6107 51.3163C61.8351 51.3248 62.0529 51.3939 62.2411 51.5163C62.4293 51.6386 62.5809 51.8096 62.6798 52.0112C62.7786 52.2127 62.8211 52.4373 62.8026 52.661C62.7841 52.8847 62.7054 53.0993 62.5748 53.2819C62.4442 53.4645 62.2666 53.6083 62.0609 53.6981C61.9043 53.7675 61.7348 53.8031 61.5636 53.8025Z" fill="#151720"/>
<path d="M78.7725 41.2759C78.6154 41.2757 78.4597 41.2458 78.3137 41.1876L68.9397 37.4579C68.7132 37.3681 68.5181 37.2136 68.3787 37.0138C68.2392 36.814 68.1615 36.5776 68.1553 36.334C68.1491 36.0905 68.2146 35.8504 68.3436 35.6437C68.4727 35.4371 68.6597 35.2729 68.8813 35.1716C69.8028 34.7474 70.5268 33.9861 70.904 33.0444C71.0955 32.5622 71.19 32.047 71.1821 31.5283C71.1743 31.0096 71.0643 30.4975 70.8585 30.0213C70.6526 29.5451 70.3549 29.1142 69.9823 28.7532C69.6098 28.3921 69.1697 28.1081 68.6873 27.9173C67.7142 27.5302 66.6273 27.545 65.6651 27.9585C64.7029 28.372 63.9441 29.1504 63.5552 30.1228C63.3649 30.5863 63.2679 31.0829 63.2696 31.5839C63.2713 32.085 63.3717 32.5809 63.5652 33.0431C63.6616 33.2689 63.689 33.5182 63.6439 33.7596C63.5988 34.0009 63.4833 34.2235 63.3119 34.3993C63.1405 34.5751 62.9209 34.6962 62.6808 34.7473C62.4407 34.7985 62.1908 34.7774 61.9626 34.6867L52.5525 30.947C52.4006 30.8868 52.262 30.7971 52.1448 30.6832C52.0275 30.5693 51.9339 30.4334 51.8692 30.2833C51.8046 30.1332 51.7701 29.9718 51.7679 29.8084C51.7657 29.6449 51.7957 29.4826 51.8563 29.3308L54.7555 22.0392C53.9462 22.0347 53.1449 21.8782 52.3934 21.578C51.5165 21.2258 50.7279 20.6849 50.0836 19.9937C49.4392 19.3024 48.9551 18.4778 48.6654 17.5783C48.3757 16.6789 48.2876 15.7267 48.4074 14.7893C48.5272 13.852 48.8519 12.9525 49.3585 12.1548C49.8651 11.3571 50.5411 10.6808 51.3385 10.1738C52.1359 9.66677 53.0352 9.34159 53.9725 9.22131C54.9098 9.10103 55.862 9.18862 56.7617 9.47784C57.6613 9.76706 58.4862 10.2508 59.1777 10.8948L62.0844 3.59319C62.1449 3.44138 62.2346 3.30295 62.3485 3.18584C62.4625 3.06873 62.5984 2.97523 62.7485 2.91068C62.8986 2.84614 63.06 2.81182 63.2233 2.80968C63.3867 2.80754 63.5489 2.83763 63.7007 2.89822L87.188 12.2337C88.0961 12.596 88.8235 13.3035 89.2108 14.2012C89.5982 15.0989 89.6138 16.1135 89.2543 17.0227L79.93 40.484C79.8391 40.7171 79.6801 40.9174 79.4736 41.0587C79.2671 41.2 79.0227 41.2757 78.7725 41.2759ZM71.9347 35.9772L78.075 38.4164L86.9406 16.1102C87.0537 15.8137 87.0468 15.4848 86.9212 15.1935C86.7955 14.9021 86.5612 14.6712 86.268 14.5499L63.9369 5.66817L60.6696 13.9047C60.5796 14.1319 60.4245 14.3275 60.2239 14.4672C60.0232 14.6068 59.7859 14.6841 59.5415 14.6895C59.2971 14.695 59.0566 14.6283 58.8499 14.4977C58.6433 14.3672 58.4797 14.1786 58.3796 13.9556C58.0581 13.2514 57.5368 12.6571 56.8804 12.2467C56.224 11.8363 55.4614 11.6278 54.6875 11.6472C53.9136 11.6665 53.1624 11.9129 52.5274 12.3557C51.8924 12.7985 51.4014 13.4181 51.1156 14.1376C50.8298 14.857 50.7618 15.6446 50.9199 16.4025C51.078 17.1603 51.4554 17.855 52.005 18.4001C52.5547 18.9453 53.2524 19.3169 54.0116 19.4687C54.7707 19.6206 55.5577 19.5461 56.2748 19.2543C56.5005 19.1614 56.7486 19.137 56.9882 19.1841C57.2277 19.2313 57.4481 19.3479 57.6217 19.5195C57.7954 19.691 57.9148 19.9099 57.9649 20.1489C58.0149 20.3878 57.9936 20.6362 57.9034 20.8631L54.6262 29.0921L60.7828 31.5401C60.787 30.4898 61.0477 29.4565 61.5423 28.5299C62.0369 27.6034 62.7503 26.8117 63.6205 26.2237C64.4908 25.6357 65.4915 25.2692 66.5357 25.156C67.5798 25.0429 68.6358 25.1866 69.6118 25.5745C70.5878 25.9625 71.4542 26.583 72.1358 27.3821C72.8173 28.1812 73.2933 29.1347 73.5224 30.1597C73.7515 31.1847 73.7267 32.2501 73.4502 33.2634C73.1737 34.2766 72.6539 35.2069 71.9359 35.9735L71.9347 35.9772Z" fill="#151720"/>
<path d="M71.3235 89.1906H6.87125C5.71013 89.191 4.59631 88.7306 3.77423 87.9106C2.95215 87.0906 2.48896 85.978 2.48633 84.8169V20.3535C2.49094 19.1941 2.95515 18.0839 3.77716 17.2663C4.59917 16.4487 5.71188 15.9905 6.87125 15.9922H39.0849C39.4147 15.9922 39.7309 16.1232 39.964 16.3563C40.1972 16.5895 40.3282 16.9057 40.3282 17.2354V30.1254C40.3291 30.3706 40.2575 30.6107 40.1224 30.8153C39.9872 31.0199 39.7946 31.1801 39.5687 31.2755C39.3427 31.3709 39.0936 31.3974 38.8527 31.3515C38.6118 31.3057 38.3898 31.1897 38.2147 31.018C37.2147 30.0508 35.8761 29.5131 34.4849 29.5199C33.0579 29.5199 31.6892 30.0868 30.6802 31.0959C29.6711 32.105 29.1042 33.4736 29.1042 34.9007C29.1042 36.3277 29.6711 37.6964 30.6802 38.7054C31.6892 39.7145 33.0579 40.2814 34.4849 40.2814C35.8752 40.2899 37.2137 39.7545 38.2147 38.7895C38.3898 38.6179 38.6118 38.5018 38.8527 38.456C39.0936 38.4102 39.3427 38.4367 39.5687 38.5321C39.7946 38.6275 39.9872 38.7876 40.1224 38.9923C40.2575 39.1969 40.3291 39.437 40.3282 39.6822V51.3165H49.6401C49.0767 50.1154 48.8256 48.7915 48.9101 47.4676C48.9947 46.1437 49.412 44.8625 50.1236 43.7428C50.8351 42.6231 51.8178 41.7012 52.9805 41.0624C54.1432 40.4236 55.4484 40.0887 56.775 40.0887C58.1017 40.0887 59.4069 40.4236 60.5696 41.0624C61.7323 41.7012 62.715 42.6231 63.4265 43.7428C64.1381 44.8625 64.5554 46.1437 64.64 47.4676C64.7245 48.7915 64.4734 50.1154 63.91 51.3165H74.4415C74.7713 51.3165 75.0875 51.4474 75.3206 51.6806C75.5538 51.9138 75.6848 52.23 75.6848 52.5597V84.8169C75.6854 85.9749 75.2266 87.0859 74.4089 87.9059C73.5912 88.7259 72.4815 89.188 71.3235 89.1906ZM6.87125 18.4787C6.37113 18.4764 5.89049 18.6724 5.53464 19.0238C5.17879 19.3752 4.97676 19.8534 4.97282 20.3535V84.8169C4.97512 85.3186 5.17623 85.799 5.53207 86.1528C5.88792 86.5065 6.36949 86.7048 6.87125 86.7041H71.3235C71.8222 86.7018 72.2996 86.5019 72.651 86.1481C73.0025 85.7943 73.1993 85.3156 73.1983 84.8169V53.7967H61.5765C61.333 53.7965 61.095 53.7249 60.892 53.5906C60.6889 53.4564 60.5297 53.2655 60.4341 53.0417C60.3385 52.8178 60.3108 52.5708 60.3543 52.3313C60.3978 52.0918 60.5106 51.8704 60.6788 51.6944C61.2837 51.0572 61.7234 50.2815 61.9593 49.4352C62.1953 48.5889 62.2205 47.6976 62.0326 46.8393C61.8447 45.981 61.4495 45.1818 60.8815 44.5115C60.3135 43.8412 59.59 43.3201 58.7742 42.9939C57.9584 42.6677 57.0751 42.5462 56.2015 42.64C55.3279 42.7339 54.4906 43.0402 53.7627 43.5323C53.0349 44.0244 52.4385 44.6872 52.0259 45.4629C51.6132 46.2385 51.3968 47.1035 51.3955 47.9821C51.3832 49.3636 51.9198 50.6934 52.8874 51.6795C53.0586 51.8541 53.1744 52.0753 53.2205 52.3154C53.2666 52.5555 53.2409 52.8039 53.1465 53.0295C53.0522 53.255 52.8935 53.4478 52.6901 53.5836C52.4868 53.7194 52.248 53.7922 52.0035 53.793H39.0849C38.7552 53.793 38.439 53.662 38.2058 53.4289C37.9727 53.1957 37.8417 52.8795 37.8417 52.5498V42.022C36.6427 42.5827 35.3217 42.832 34.0009 42.7465C32.68 42.6611 31.4021 42.2439 30.2853 41.5333C29.1686 40.8228 28.2492 39.842 27.6122 38.6818C26.9753 37.5215 26.6413 36.2193 26.6413 34.8957C26.6413 33.5721 26.9753 32.2699 27.6122 31.1096C28.2492 29.9494 29.1686 28.9686 30.2853 28.2581C31.4021 27.5476 32.68 27.1303 34.0009 27.0449C35.3217 26.9594 36.6427 27.2087 37.8417 27.7694V18.4787H6.87125Z" fill="#151720"/>
<path d="M39.1065 89.1405C38.7768 89.1405 38.4606 89.0095 38.2274 88.7763C37.9943 88.5432 37.8633 88.2269 37.8633 87.8972V74.9874C37.8633 74.6577 37.9943 74.3414 38.2274 74.1083C38.4606 73.8751 38.7768 73.7441 39.1065 73.7441C39.4363 73.7441 39.7525 73.8751 39.9856 74.1083C40.2188 74.3414 40.3498 74.6577 40.3498 74.9874V87.8972C40.3498 88.2269 40.2188 88.5432 39.9856 88.7763C39.7525 89.0095 39.4363 89.1405 39.1065 89.1405Z" fill="#151720"/>
<path d="M16.6773 53.8039H3.76375C3.43402 53.8039 3.1178 53.6729 2.88465 53.4397C2.65149 53.2066 2.52051 52.8904 2.52051 52.5606C2.52051 52.2309 2.65149 51.9147 2.88465 51.6815C3.1178 51.4484 3.43402 51.3174 3.76375 51.3174H16.6773C17.007 51.3174 17.3233 51.4484 17.5564 51.6815C17.7896 51.9147 17.9206 52.2309 17.9206 52.5606C17.9206 52.8904 17.7896 53.2066 17.5564 53.4397C17.3233 53.6729 17.007 53.8039 16.6773 53.8039Z" fill="#151720"/>
<path d="M39.0978 66.7059C38.768 66.7059 38.4518 66.5749 38.2186 66.3418C37.9855 66.1086 37.8545 65.7924 37.8545 65.4627V52.5665C37.8536 52.4032 37.8849 52.2414 37.9465 52.0902C38.0082 51.939 38.099 51.8015 38.2138 51.6854C38.4457 51.451 38.7612 51.3182 39.0909 51.3164C39.4206 51.3146 39.7376 51.4439 39.972 51.6757C40.2065 51.9076 40.3392 52.2231 40.341 52.5528V65.4564C40.3418 65.6202 40.3103 65.7826 40.2482 65.9341C40.186 66.0857 40.0946 66.2235 39.9791 66.3396C39.8635 66.4557 39.7262 66.5478 39.575 66.6107C39.4237 66.6735 39.2615 66.7059 39.0978 66.7059Z" fill="#151720"/>
<path d="M43.713 78.1131C41.6699 78.1138 39.7073 77.3171 38.2427 75.8927C38.1202 75.7806 38.0215 75.6451 37.9522 75.4943C37.883 75.3434 37.8446 75.1802 37.8395 75.0143C37.8343 74.8484 37.8624 74.6831 37.9222 74.5282C37.9819 74.3733 38.072 74.232 38.1873 74.1125C38.3025 73.993 38.4405 73.8978 38.5932 73.8325C38.7458 73.7673 38.9099 73.7332 39.0759 73.7324C39.2419 73.7315 39.4064 73.764 39.5597 73.8277C39.713 73.8915 39.8519 73.9853 39.9683 74.1037C40.726 74.8334 41.6812 75.3249 42.7155 75.5171C43.7498 75.7092 44.8178 75.5937 45.7871 75.1848C46.7564 74.7759 47.5844 74.0916 48.1685 73.2167C48.7526 72.3417 49.0672 71.3146 49.0733 70.2626C49.0793 69.2107 48.7766 68.18 48.2025 67.2984C47.6285 66.4168 46.8084 65.723 45.8439 65.303C44.8794 64.883 43.8128 64.7552 42.7763 64.9355C41.7399 65.1158 40.7791 65.5962 40.0131 66.3172C39.843 66.4989 39.6224 66.6253 39.3797 66.6802C39.1371 66.7351 38.8835 66.7159 38.6518 66.6251C38.4202 66.5343 38.2211 66.3761 38.0804 66.1709C37.9396 65.9658 37.8636 65.7231 37.8623 65.4743V65.4631C37.8624 65.2962 37.8962 65.1311 37.9616 64.9775C38.0269 64.8239 38.1225 64.6851 38.2427 64.5692C39.1705 63.6755 40.3034 63.0231 41.5421 62.6691C42.7807 62.3152 44.0873 62.2707 45.3472 62.5394C46.6072 62.8081 47.7819 63.3818 48.7684 64.2102C49.7549 65.0387 50.5231 66.0966 51.0055 67.2911C51.488 68.4855 51.67 69.7802 51.5355 71.0614C51.4011 72.3426 50.9543 73.5712 50.2344 74.6395C49.5145 75.7079 48.5435 76.5832 47.4065 77.1888C46.2694 77.7944 45.0012 78.1118 43.713 78.1131Z" fill="#151720"/>
<path d="M39.0976 53.796H26.2325C25.9028 53.796 25.5865 53.6651 25.3534 53.4319C25.1202 53.1988 24.9893 52.8825 24.9893 52.5528C24.9893 52.2231 25.1202 51.9069 25.3534 51.6737C25.5865 51.4406 25.9028 51.3096 26.2325 51.3096H39.0976C39.4273 51.3096 39.7435 51.4406 39.9767 51.6737C40.2098 51.9069 40.3408 52.2231 40.3408 52.5528C40.3408 52.8825 40.2098 53.1988 39.9767 53.4319C39.7435 53.6651 39.4273 53.796 39.0976 53.796Z" fill="#151720"/>
<path d="M21.4298 65.0325C19.8845 65.0329 18.3733 64.5779 17.0852 63.7243C15.797 62.8707 14.789 61.6564 14.1872 60.2331C13.5853 58.8099 13.4163 57.2408 13.7012 55.722C13.9861 54.2032 14.7124 52.802 15.7892 51.6937C16.0198 51.4611 16.333 51.329 16.6605 51.326C16.988 51.3231 17.3035 51.4495 17.5384 51.6778C17.7733 51.9061 17.9085 52.2179 17.9148 52.5454C17.9211 52.8729 17.7979 53.1896 17.572 53.4268C16.8361 54.1844 16.3397 55.1421 16.1449 56.1802C15.9501 57.2183 16.0655 58.2908 16.4767 59.2637C16.8879 60.2366 17.5766 61.0668 18.4568 61.6505C19.3371 62.2343 20.3698 62.5457 21.426 62.546C22.854 62.546 24.2236 61.9794 25.2343 60.9706C26.245 59.9618 26.8141 58.5932 26.8167 57.1652C26.8267 55.7722 26.286 54.4317 25.3124 53.4355C25.1903 53.3208 25.0927 53.1826 25.0253 53.0293C24.958 52.8759 24.9223 52.7105 24.9205 52.5431C24.9186 52.3756 24.9507 52.2094 25.0146 52.0546C25.0786 51.8998 25.1732 51.7596 25.2927 51.6422C25.4122 51.5249 25.5542 51.4329 25.7101 51.3718C25.8661 51.3107 26.0328 51.2817 26.2002 51.2867C26.3676 51.2916 26.5323 51.3303 26.6844 51.4005C26.8365 51.4706 26.9728 51.5708 27.0853 51.6949C28.5177 53.1566 29.3148 55.1249 29.3032 57.1714C29.2979 59.2568 28.4663 61.2551 26.9906 62.7286C25.5148 64.202 23.5152 65.0305 21.4298 65.0325Z" fill="#151720"/>
</svg>
