<svg width="80" height="80" viewBox="0 0 80 80" fill="none" xmlns="http://www.w3.org/2000/svg">
<g clip-path="url(#clip0)">
<path d="M80 27.2451C79.9981 26.0306 79.6409 24.7989 78.8511 23.7836L72.5124 15.6729C71.4506 14.3248 69.8352 13.6384 68.2208 13.6357C67.26 13.6357 66.2817 13.882 65.4173 14.4211L59.2367 18.2664C58.5867 18.6809 57.4723 18.9654 56.3959 18.9581C55.5597 18.9617 54.7516 18.7943 54.218 18.5307L48.1655 15.599C47.1892 15.129 46.1009 14.9364 45.0066 14.9345C43.4348 14.9418 41.8431 15.3281 40.5641 16.2145L39.8578 16.71C39.2933 16.4282 38.4306 15.999 37.4534 15.5128C36.2816 14.9382 34.9036 14.7065 33.5117 14.702C32.2544 14.7056 30.9973 14.8993 29.8936 15.3656L25.7711 17.1246C25.1002 17.4156 24.033 17.6056 22.973 17.6009C21.913 17.6054 20.8477 17.4154 20.1767 17.1246L16.0505 15.3646C15.2978 15.0437 14.4933 14.9065 13.6959 14.9056C12.7778 14.9065 11.8652 15.0875 11.0169 15.4311C10.1697 15.7765 9.38329 16.2865 8.75704 16.9864L1.24454 25.3998C0.41188 26.3296 -0.00171342 27.5006 5.33469e-06 28.6532C-0.00171342 30.0278 0.586411 31.4067 1.72079 32.3731L8.7286 38.3518L5.40422 41.8198C4.48782 42.7762 4.03157 44.0162 4.03157 45.2423C4.02985 46.5468 4.54797 47.864 5.57422 48.8339L6.2486 49.4746C6.88407 50.0775 7.64766 50.4609 8.44672 50.6654C8.04594 51.4026 7.82688 52.2109 7.8286 53.0207C7.82688 54.3262 8.34501 55.6425 9.36938 56.6134L9.36766 56.6125L10.0441 57.2561C11.0069 58.1687 12.255 58.6232 13.4847 58.6225C14.1456 58.6234 14.8073 58.4906 15.4292 58.2306C15.6475 59.1161 16.0983 59.9578 16.8073 60.6304L17.4838 61.274C18.4466 62.1867 19.6927 62.6412 20.9244 62.6404C21.8872 62.6414 22.8544 62.3576 23.687 61.8068C23.9306 62.5904 24.348 63.3331 24.9833 63.9367L25.6597 64.5803C26.6205 65.4929 27.8686 65.9475 29.0986 65.9467C30.4084 65.9476 31.7313 65.4331 32.7083 64.4131L35.6464 61.345L39.6381 65.0393C40.5936 65.9256 41.82 66.3665 43.0306 66.3639C44.3606 66.3667 45.7023 65.8339 46.6814 64.7857L47.3186 64.1031C47.8686 63.5123 48.2277 62.8131 48.4359 62.0832L49.9822 63.5104C50.9394 64.3931 52.1641 64.8321 53.373 64.8312C54.7047 64.8321 56.0502 64.2993 57.0302 63.2504L57.6638 62.5686C58.3955 61.7868 58.8074 60.8186 58.9345 59.8296C59.3427 59.9342 59.7563 60.0051 60.1734 60.0051C61.5052 60.0051 62.8469 59.4732 63.8278 58.4253L64.4633 57.7434C65.3514 56.7915 65.7933 55.5707 65.7914 54.3671C65.7914 53.9935 65.7378 53.6218 65.655 53.2545C66.7595 53.1081 67.8305 52.6154 68.6449 51.7409L69.282 51.0582C70.1702 50.1064 70.6102 48.8856 70.6102 47.6811C70.6119 46.3557 70.0775 45.0184 69.023 44.044L67.8313 42.9432L78.5872 31.0511C79.5528 29.9804 79.9983 28.6023 80 27.2451ZM9.68969 48.135C9.11985 48.1332 8.56251 47.9295 8.12704 47.5168L7.45157 46.8761C6.98422 46.4342 6.75344 45.8462 6.75157 45.2425C6.75344 44.6762 6.9561 44.1234 7.37344 43.6879L14.1822 36.5828C14.6258 36.12 15.2177 35.8882 15.8248 35.8875C16.393 35.8884 16.9484 36.0929 17.3875 36.5065L18.0602 37.1482C18.0602 37.1482 18.7566 38.1781 18.7583 38.7826C18.7566 39.2353 18.6202 39.6762 18.3556 40.0581C18.333 40.0807 11.0069 47.7159 11.0069 47.7159C10.6178 47.9912 10.1578 48.1329 9.68969 48.135ZM15.1275 55.222C14.6848 55.6829 14.0939 55.9137 13.4867 55.9156C12.9169 55.9146 12.3613 55.7101 11.9241 55.2975L11.2477 54.6546L11.2459 54.6537C10.7823 54.2137 10.5495 53.6239 10.5495 53.0201C10.5495 52.4539 10.7541 51.9011 11.1694 51.4656C11.1694 51.4656 20.2453 42.0179 20.3217 41.9268C20.7555 41.5096 21.3144 41.2942 21.8916 41.2932C22.4614 41.2942 23.017 41.4978 23.4542 41.9114L24.1306 42.555C24.5959 42.995 24.827 43.584 24.8288 44.1886C24.8269 44.7548 24.6225 45.3084 24.2069 45.7439L15.1275 55.222ZM22.5661 59.2389C22.1244 59.7009 21.5336 59.932 20.9263 59.9337C20.3564 59.9328 19.8008 59.7282 19.3636 59.3146L18.6853 58.6718C18.22 58.2309 17.9872 57.642 17.9872 57.0382C17.9872 56.5329 18.1591 56.0428 18.488 55.6346L24.8086 49.0376C25.235 48.6531 25.7694 48.4504 26.3231 48.4504C26.893 48.4514 27.4486 48.655 27.8858 49.0686L28.5641 49.7121C29.0277 50.1521 29.2605 50.7412 29.2622 51.3448C29.2603 51.9121 29.0541 52.4657 28.6403 52.9001L22.5661 59.2389ZM34.5758 58.5426L30.7405 62.5454C30.2986 63.0071 29.7069 63.2382 29.0997 63.24C28.5299 63.239 27.9742 63.0345 27.537 62.6209L26.8606 61.9781C26.397 61.5381 26.1642 60.9482 26.1625 60.3445C26.1642 59.7771 26.3688 59.2235 26.7844 58.79L30.618 54.7873C31.0616 54.3256 31.6534 54.0937 32.2606 54.0928C32.8288 54.0937 33.3861 54.2973 33.8233 54.7118L34.5016 55.3546C34.9652 55.7946 35.1961 56.3837 35.198 56.9873C35.1958 57.5545 34.9913 58.1081 34.5758 58.5426ZM67.8942 47.6847C67.8934 48.2406 67.6942 48.7851 67.2906 49.2178L66.6552 49.8996C66.2116 50.3742 65.6097 50.6142 64.9934 50.6151C64.4344 50.6142 63.887 50.4178 63.4527 50.0162L52.7441 40.1129L50.8923 42.0956L62.3545 52.7142C62.8319 53.1561 63.0717 53.7561 63.0753 54.3687C63.0717 54.9268 62.8744 55.4704 62.4717 55.9032L61.8381 56.5851C61.3945 57.0596 60.7927 57.2987 60.1764 57.3006C59.6173 57.2989 59.0683 57.1015 58.6373 56.7025L47.9259 46.7993L46.0761 48.782L55.582 57.5726C56.0402 58.0117 56.2748 58.5962 56.2748 59.196C56.2748 59.7525 56.0775 60.2968 55.6749 60.7287L55.0394 61.4106C54.5975 61.8851 53.9939 62.1251 53.3759 62.1268C52.815 62.1251 52.2678 61.9278 51.8352 61.5287L42.3483 52.77H42.3466L42.3448 52.7682L40.4986 54.7545L40.5005 54.7562L40.5359 54.7898L45.2875 59.1751C45.7084 59.6078 45.9266 60.1623 45.9283 60.7359C45.9266 61.2895 45.7309 61.8312 45.3283 62.2632L44.6928 62.9459C44.2492 63.4204 43.6492 63.6586 43.0347 63.6604C42.4756 63.6587 41.9283 63.4623 41.4956 63.0615L37.3586 59.2307C37.7186 58.5245 37.9195 57.7581 37.9195 56.989C37.9213 55.6845 37.4031 54.3692 36.3788 53.3975L35.7005 52.7539C34.7397 51.842 33.4933 51.3867 32.2634 51.3884C32.168 51.3884 32.0717 51.4103 31.9781 51.4157C31.9781 51.3931 31.9834 51.3693 31.9834 51.3467C31.9852 50.0421 30.4427 47.7532 30.4427 47.7532L29.7663 47.1115C29.0472 46.4296 28.1698 46.0043 27.2573 45.8334C27.4455 45.3007 27.5519 44.7462 27.5519 44.1907C27.5519 42.8862 27.0355 41.5698 26.0111 40.5992L25.3347 39.9556C24.3719 39.0429 23.1258 38.5875 21.8958 38.5884C21.7522 38.5884 21.6105 38.6175 21.4677 38.6303C21.4286 37.3776 20.9241 36.1259 19.9423 35.1932V35.1923L19.2678 34.5515C18.305 33.6379 17.0589 33.1825 15.8289 33.1834C14.517 33.1825 13.1963 33.697 12.2192 34.717L10.612 36.3942L3.49235 30.3217C2.98063 29.8836 2.72516 29.2781 2.72329 28.6564C2.72501 28.1354 2.90235 27.6254 3.28047 27.202L10.7928 18.7887C11.0909 18.4542 11.5319 18.1515 12.0483 17.9414C12.5647 17.7314 13.1509 17.6161 13.6991 17.6168C14.1764 17.6168 14.6244 17.7032 14.9827 17.8578L19.107 19.6176C20.2697 20.1076 21.6195 20.3086 22.9761 20.3129C24.3342 20.3084 25.6824 20.1075 26.8452 19.6176L30.9677 17.8586C31.6031 17.5814 32.562 17.4095 33.5156 17.4131C34.5702 17.4067 35.6264 17.625 36.2391 17.9376C36.6281 18.1312 36.9972 18.315 37.3399 18.4867L33.1355 21.4421C31.7845 22.3921 31.0564 23.9029 31.0583 25.4275C31.0566 26.4365 31.3764 27.4637 32.0274 28.3354L32.0256 28.3336L32.5809 29.0798C33.6355 30.4817 35.2799 31.2025 36.9234 31.2061C37.8516 31.2061 38.797 30.9715 39.6397 30.4661L42.1541 28.9561C42.6669 28.6425 43.4413 28.4443 44.242 28.4479C45.183 28.4425 46.1311 28.7207 46.7011 29.1396L53.6572 34.1267C55.2053 35.2357 57.7269 37.2929 59.1242 38.5875L67.1756 46.0317C67.6524 46.4737 67.8923 47.0711 67.8942 47.6847ZM76.5684 29.2414L65.8425 41.1017L60.9727 36.6001C59.4473 35.192 56.932 33.1386 55.2448 31.9267L48.2906 26.9396C47.1116 26.1043 45.668 25.7432 44.2408 25.7379C43.0263 25.7415 41.8027 26.0062 40.7464 26.6351L38.2339 28.1451C37.8484 28.3768 37.3941 28.4951 36.922 28.4961C36.0783 28.4989 35.2339 28.1051 34.7631 27.4642L34.2095 26.7189L34.2077 26.717C33.9131 26.3198 33.7759 25.8743 33.7739 25.4234C33.7775 24.7415 34.092 24.0798 34.7013 23.6498L42.1355 18.4264C42.7783 17.9611 43.9219 17.6346 45.0081 17.6428C45.7627 17.6392 46.4834 17.7909 46.977 18.0346L53.0294 20.9664C54.0613 21.4618 55.2258 21.6645 56.3973 21.6673C57.9027 21.66 59.4244 21.3328 60.6781 20.5628L66.8606 16.7167C67.2552 16.4704 67.7288 16.3431 68.2225 16.3431C69.057 16.3414 69.8933 16.7195 70.3669 17.3367L76.7056 25.4473C77.0711 25.9118 77.2828 26.5671 77.2828 27.2464C77.2839 28.0059 77.0156 28.7532 76.5684 29.2414Z" fill="#151720"/>
</g>
<defs>
<clipPath id="clip0">
<rect width="80" height="80" fill="white"/>
</clipPath>
</defs>
</svg>
