<svg width="121" height="121" viewBox="0 0 121 121" fill="none" xmlns="http://www.w3.org/2000/svg">
<g clip-path="url(#clip0)">
<path d="M121 41.2082C120.997 39.3712 120.457 37.5083 119.262 35.9726L109.675 23.7053C108.069 21.6662 105.626 20.628 103.184 20.624C101.731 20.624 100.251 20.9965 98.9437 21.8118L89.5955 27.6278C88.6124 28.2548 86.9269 28.6852 85.2989 28.6741C84.034 28.6795 82.8117 28.4264 82.0047 28.0277L72.8503 23.5935C71.3737 22.8826 69.7277 22.5912 68.0724 22.5884C65.6952 22.5995 63.2877 23.1837 61.3531 24.5244L60.2849 25.2738C59.4311 24.8477 58.1263 24.1985 56.6483 23.463C54.8759 22.5941 52.7917 22.2436 50.6865 22.2367C48.7848 22.2422 46.8835 22.5352 45.2141 23.2404L38.9788 25.901C37.964 26.341 36.3499 26.6284 34.7466 26.6213C33.1434 26.6282 31.5321 26.3408 30.5173 25.901L24.2763 23.239C23.1379 22.7536 21.9211 22.5461 20.7151 22.5447C19.3264 22.5461 17.9461 22.8197 16.663 23.3394C15.3817 23.862 14.1922 24.6333 13.245 25.6918L1.88236 38.4172C0.622969 39.8236 -0.00259154 41.5946 8.06871e-06 43.338C-0.00259154 45.417 0.886947 47.5026 2.60269 48.9643L13.202 58.0071L8.17389 63.2524C6.78783 64.699 6.09775 66.5745 6.09775 68.4289C6.09515 70.4021 6.87881 72.3943 8.43101 73.8612L9.45101 74.8304C10.4122 75.7421 11.5671 76.3221 12.7757 76.6314C12.1695 77.7464 11.8382 78.9689 11.8408 80.1938C11.8382 82.1684 12.6218 84.1592 14.1712 85.6277L14.1686 85.6263L15.1917 86.5997C16.6479 87.9801 18.5357 88.6676 20.3956 88.6664C21.3953 88.6679 22.3961 88.467 23.3367 88.0737C23.6669 89.413 24.3487 90.6861 25.4211 91.7035L26.4442 92.6769C27.9004 94.0573 29.7852 94.7448 31.6481 94.7436C33.1044 94.745 34.5672 94.3159 35.8266 93.4828C36.1951 94.668 36.8263 95.7913 37.7872 96.7042L38.8103 97.6776C40.2635 99.058 42.1513 99.7455 44.0116 99.7443C45.9928 99.7457 47.9935 98.9675 49.4713 97.4248L53.9152 92.7842L59.9527 98.372C61.3978 99.7124 63.2528 100.379 65.0838 100.375C67.0955 100.38 69.1248 99.5737 70.6056 97.9884L71.5694 96.9559C72.4013 96.0623 72.9443 95.0048 73.2594 93.9009L75.5981 96.0595C77.0458 97.3945 78.8982 98.0586 80.7266 98.0572C82.7408 98.0586 84.7759 97.2527 86.2581 95.6662L87.2164 94.6349C88.3232 93.4526 88.9461 91.988 89.1385 90.4923C89.7558 90.6504 90.3813 90.7577 91.0123 90.7577C93.0266 90.7577 95.0559 89.9532 96.5396 88.3682L97.5007 87.3369C98.844 85.8971 99.5123 84.0507 99.5095 82.2303C99.5095 81.6652 99.4284 81.103 99.3032 80.5474C100.974 80.3259 102.594 79.5808 103.825 78.2581L104.789 77.2256C106.132 75.7858 106.798 73.9394 106.798 72.1176C106.8 70.113 105.992 68.0903 104.397 66.6165L102.595 64.9516L118.863 46.9647C120.324 45.3454 120.997 43.2609 121 41.2082ZM14.6557 72.8041C13.7938 72.8015 12.9508 72.4933 12.2921 71.8692L11.2705 70.9C10.5636 70.2317 10.2146 69.3424 10.2117 68.4292C10.2146 67.5727 10.5211 66.7366 11.1523 66.078L21.4506 55.3314C22.1215 54.6314 23.0167 54.2809 23.9351 54.2797C24.7944 54.2812 25.6345 54.5905 26.2986 55.2161L27.316 56.1867C27.316 56.1867 28.3693 57.7443 28.3719 58.6587C28.3693 59.3433 28.163 60.0102 27.7629 60.5878C27.7286 60.6221 16.6479 72.1703 16.6479 72.1703C16.0594 72.5867 15.3637 72.801 14.6557 72.8041ZM22.8804 83.5232C22.2108 84.2204 21.317 84.5694 20.3987 84.5723C19.5368 84.5709 18.6964 84.2615 18.0352 83.6374L17.0121 82.6651L17.0095 82.6637C16.3083 81.9982 15.9562 81.1061 15.9562 80.1929C15.9562 79.3364 16.2655 78.5003 16.8937 77.8417C16.8937 77.8417 30.621 63.5521 30.7366 63.4143C31.3927 62.7833 32.238 62.4574 33.111 62.456C33.9729 62.4574 34.8133 62.7653 35.4745 63.3909L36.4976 64.3643C37.2014 65.0298 37.5509 65.9208 37.5535 66.8352C37.5507 67.6916 37.2415 68.5289 36.6129 69.1876L22.8804 83.5232ZM34.1312 89.5987C33.4631 90.2976 32.5696 90.6471 31.651 90.6497C30.7891 90.6483 29.9487 90.3389 29.2874 89.7134L28.2615 88.7411C27.5578 88.0742 27.2056 87.1835 27.2056 86.2703C27.2056 85.506 27.4656 84.7647 27.9631 84.1474L37.523 74.1694C38.1679 73.5878 38.9762 73.2812 39.8137 73.2812C40.6756 73.2827 41.516 73.5906 42.1772 74.2162L43.2032 75.1896C43.9043 75.8551 44.2565 76.746 44.2591 77.659C44.2562 78.5171 43.9443 79.3544 43.3185 80.0114L34.1312 89.5987ZM52.2959 88.5457L46.495 94.5999C45.8266 95.2983 44.9317 95.6478 44.0133 95.6504C43.1514 95.649 42.311 95.3396 41.6498 94.7141L40.6267 93.7418C39.9255 93.0763 39.5734 92.1842 39.5708 91.271C39.5734 90.4129 39.8827 89.5756 40.5114 88.9198L46.3097 82.8658C46.9806 82.1674 47.8758 81.8167 48.7942 81.8153C49.6535 81.8167 50.4965 82.1246 51.1577 82.7516L52.1836 83.7239C52.8848 84.3894 53.2341 85.2803 53.2369 86.1933C53.2336 87.0511 52.9243 87.8884 52.2959 88.5457ZM102.69 72.123C102.689 72.9639 102.388 73.7875 101.777 74.4418L100.816 75.4732C100.145 76.1909 99.2347 76.5539 98.3026 76.5553C97.457 76.5539 96.6291 76.2568 95.9721 75.6495L79.7754 60.6708L76.9747 63.6695L94.3112 79.7302C95.0332 80.3985 95.396 81.306 95.4014 82.2326C95.396 83.0768 95.0975 83.899 94.4885 84.5536L93.5302 85.585C92.8592 86.3027 91.9489 86.6643 91.0168 86.6671C90.1712 86.6645 89.3408 86.366 88.689 85.7624L72.488 70.784L69.6901 73.7827L84.0678 87.0785C84.7607 87.7426 85.1157 88.6267 85.1157 89.534C85.1157 90.3756 84.8172 91.1989 84.2082 91.8521L83.2471 92.8835C82.5787 93.6012 81.6658 93.9642 80.7311 93.9668C79.8827 93.9642 79.0551 93.6657 78.4007 93.0621L64.0518 79.8145H64.0492L64.0466 79.8119L61.2541 82.8161L61.257 82.8187L61.3106 82.8695L68.4974 89.5023C69.134 90.1567 69.4639 90.9954 69.4665 91.863C69.4639 92.7003 69.1681 93.5197 68.559 94.1731L67.5979 95.2056C66.9269 95.9234 66.0194 96.2835 65.09 96.2864C64.2444 96.2838 63.4165 95.9867 62.7621 95.3805L56.5049 89.5865C57.0494 88.5183 57.3533 87.3591 57.3533 86.1959C57.3559 84.2228 56.5722 82.2333 55.0229 80.7636L53.997 79.7902C52.5438 78.411 50.6586 77.7223 48.7985 77.7249C48.6541 77.7249 48.5085 77.758 48.3669 77.7663C48.3669 77.732 48.375 77.6961 48.375 77.6618C48.3776 75.6887 46.0445 72.2267 46.0445 72.2267L45.0215 71.2561C43.9339 70.2248 42.6069 69.5815 41.2267 69.323C41.5113 68.5173 41.6722 67.6786 41.6722 66.8385C41.6722 64.8654 40.8912 62.8743 39.3418 61.4062L38.3187 60.4328C36.8625 59.0524 34.9777 58.3635 33.1174 58.3649C32.9002 58.3649 32.6858 58.4089 32.4698 58.4282C32.4108 56.5336 31.6477 54.6404 30.1628 53.2297V53.2283L29.1426 52.2591C27.6863 50.8773 25.8016 50.1884 23.9412 50.1899C21.957 50.1884 19.9593 50.9667 18.4816 52.5094L16.0507 55.0462L5.28218 45.8615C4.5082 45.1988 4.12181 44.2831 4.11897 43.3427C4.12157 42.5548 4.3898 41.7834 4.96172 41.143L16.3241 28.4179C16.775 27.9119 17.442 27.4541 18.223 27.1363C19.0041 26.8187 19.8908 26.6442 20.7198 26.6454C21.4418 26.6454 22.1194 26.7761 22.6613 27.0098L28.8994 29.6716C30.6579 30.4127 32.6995 30.7167 34.7513 30.7233C36.8055 30.7164 38.8446 30.4125 40.6033 29.6716L46.8386 27.011C47.7997 26.5918 49.2501 26.3318 50.6924 26.3373C52.2874 26.3276 53.8849 26.6577 54.8116 27.1306C55.4 27.4234 55.9583 27.7013 56.4765 27.9611L50.1174 32.4312C48.0741 33.8681 46.9728 36.1531 46.9757 38.459C46.9731 39.9852 47.4568 41.5388 48.4414 42.8573L48.4388 42.8545L49.2787 43.9832C50.8737 46.1035 53.3608 47.1937 55.8467 47.1991C57.2505 47.1991 58.6805 46.8444 59.955 46.0799L63.758 43.796C64.5337 43.3217 65.7049 43.022 66.9161 43.0275C68.3392 43.0192 69.7733 43.4401 70.6354 44.0737L81.1565 51.6166C83.498 53.294 87.3119 56.4055 89.4254 58.3635L101.603 69.6229C102.324 70.2915 102.687 71.1949 102.69 72.123ZM115.81 44.2275L99.5868 62.1663L92.2212 55.3576C89.9141 53.2279 86.1097 50.122 83.5578 48.2891L73.0396 40.7462C71.2562 39.4828 69.0728 38.9366 66.9142 38.9286C65.0772 38.934 63.2265 39.3344 61.6289 40.2856L57.8288 42.5695C57.2458 42.9199 56.5585 43.0988 55.8446 43.1002C54.5684 43.1045 53.2913 42.509 52.5792 41.5395L51.7419 40.4122L51.7391 40.4094C51.2936 39.8087 51.0861 39.1349 51.083 38.4529C51.0885 37.4215 51.5642 36.4207 52.4856 35.7703L63.7299 27.8698C64.7022 27.1661 66.4318 26.6724 68.0748 26.6847C69.216 26.6792 70.3062 26.9087 71.0528 27.2774L80.2069 31.7116C81.7676 32.461 83.529 32.7675 85.301 32.7718C87.5778 32.7607 89.8794 32.2658 91.7757 31.1012L101.127 25.2839C101.723 24.9115 102.44 24.7189 103.187 24.7189C104.449 24.7163 105.714 25.2882 106.43 26.2217L116.017 38.489C116.57 39.1916 116.89 40.1828 116.89 41.2101C116.892 42.3589 116.486 43.4892 115.81 44.2275Z" fill="#37312E"/>
</g>
<defs>
<clipPath id="clip0">
<rect width="121" height="121" fill="white"/>
</clipPath>
</defs>
</svg>
