<svg width="146" height="146" viewBox="0 0 146 146" fill="none" xmlns="http://www.w3.org/2000/svg">
<path d="M62.5542 61.5466L43.0878 42.0799C42.1362 41.1283 40.5983 41.1283 39.6471 42.0799C38.6958 43.0315 38.6958 44.5693 39.6471 45.5206L59.1135 64.9873C59.588 65.4618 60.2111 65.7002 60.8339 65.7002C61.4569 65.7002 62.0797 65.4618 62.5542 64.9873C63.5058 64.0358 63.5058 62.4979 62.5542 61.5466Z" fill="#37312E"/>
<path d="M62.5545 42.0799C61.6029 41.1283 60.0651 41.1283 59.1138 42.0799L39.6471 61.5466C38.6958 62.4982 38.6958 64.0361 39.6471 64.9873C40.1216 65.4618 40.7446 65.7002 41.3674 65.7002C41.9902 65.7002 42.6132 65.4618 43.0877 64.9873L62.5545 45.5206C63.5061 44.5693 63.5061 43.0315 62.5545 42.0799Z" fill="#37312E"/>
<path d="M106.353 119.946L96.62 110.213C95.6684 109.261 94.1306 109.261 93.1793 110.213C92.228 111.164 92.228 112.702 93.1793 113.653L102.913 123.387C103.387 123.861 104.01 124.1 104.633 124.1C105.256 124.1 105.879 123.861 106.353 123.387C107.305 122.435 107.305 120.898 106.353 119.946Z" fill="#37312E"/>
<path d="M106.353 110.213C105.402 109.261 103.864 109.261 102.913 110.213L93.1793 119.946C92.228 120.898 92.228 122.435 93.1793 123.387C93.6538 123.861 94.2768 124.1 94.8996 124.1C95.5227 124.1 96.1455 123.861 96.62 123.387L106.353 113.653C107.305 112.702 107.305 111.164 106.353 110.213Z" fill="#37312E"/>
<path d="M53.533 99.7666C48.165 99.7666 43.7998 104.132 43.7998 109.5C43.7998 114.868 48.1653 119.233 53.533 119.233C58.9008 119.233 63.2663 114.868 63.2663 109.5C63.2666 104.132 58.9011 99.7666 53.533 99.7666ZM53.533 114.367C50.8492 114.367 48.6663 112.184 48.6663 109.5C48.6663 106.816 50.8489 104.633 53.533 104.633C56.2172 104.633 58.3998 106.816 58.3998 109.5C58.3998 112.184 56.2172 114.367 53.533 114.367Z" fill="#37312E"/>
<path d="M92.4705 80.2998C87.1025 80.2998 82.7373 84.6653 82.7373 90.033C82.7373 95.4011 87.1028 99.7663 92.4705 99.7663C97.8383 99.7663 102.204 95.4008 102.204 90.033C102.204 84.6653 97.8383 80.2998 92.4705 80.2998ZM92.4705 94.8998C89.7867 94.8998 87.6038 92.7172 87.6038 90.033C87.6038 87.3492 89.7864 85.1663 92.4705 85.1663C95.1547 85.1663 97.3373 87.3489 97.3373 90.033C97.337 92.7172 95.1544 94.8998 92.4705 94.8998Z" fill="#37312E"/>
<path d="M90.0348 46.2334C88.6917 46.2334 87.6016 47.321 87.6016 48.6666C87.6016 67.4519 72.3203 82.7334 53.5348 82.7334C52.1917 82.7334 51.1016 83.821 51.1016 85.1666C51.1016 86.5123 52.1917 87.5999 53.5348 87.5999C75.0016 87.5999 92.468 70.1335 92.468 48.6666C92.4683 47.3213 91.3782 46.2334 90.0348 46.2334Z" fill="#37312E"/>
<path d="M101.483 56.6793L91.7499 46.9461C90.7983 45.9945 89.2605 45.9945 88.3092 46.9461L78.576 56.6793C77.6244 57.6306 77.6244 59.1687 78.576 60.12C79.5273 61.0716 81.0654 61.0716 82.0167 60.12L90.0296 52.1071L98.0425 60.12C98.517 60.5945 99.14 60.8329 99.7628 60.8329C100.386 60.8329 101.009 60.5945 101.483 60.12C102.434 59.1687 102.434 57.6306 101.483 56.6793Z" fill="#37312E"/>
<path d="M93.61 7.3H87.3831C85.5726 7.3 83.8426 6.41915 82.755 4.94204C80.4775 1.84924 76.8297 0 72.9998 0C69.1699 0 65.5221 1.84924 63.2446 4.94204C62.157 6.41915 60.4267 7.3 58.6165 7.3H52.3896C47.652 7.3 43.7998 11.1545 43.7998 15.8898V29.2C43.7998 30.5457 44.89 31.6332 46.233 31.6332H99.7663C101.109 31.6332 102.2 30.5457 102.2 29.2V15.8898C102.2 11.1545 98.3479 7.3 93.61 7.3ZM97.333 26.7668H48.6666V15.8898C48.6666 13.8383 50.3382 12.1668 52.3896 12.1668H58.6165C61.9671 12.1668 65.1623 10.5462 67.1649 7.82811C68.5494 5.94465 70.6764 4.86676 73.0001 4.86676C75.3238 4.86676 77.4505 5.94465 78.8375 7.82811C80.8376 10.5462 84.0328 12.1668 87.3834 12.1668H93.6103C95.6617 12.1668 97.3333 13.8383 97.3333 15.8898V26.7668H97.333Z" fill="#37312E"/>
<path d="M116.801 12.166H99.7677C98.4246 12.166 97.3345 13.2536 97.3345 14.5993V26.766H48.6677V14.5993C48.6677 13.2536 47.5776 12.166 46.2345 12.166H29.2009C22.4924 12.166 17.0342 17.6239 17.0342 24.3328V133.833C17.0342 140.541 22.4924 145.999 29.2009 145.999H116.801C123.51 145.999 128.968 140.541 128.968 133.832V24.3325C128.968 17.6239 123.51 12.166 116.801 12.166ZM124.101 133.832C124.101 137.857 120.826 141.132 116.801 141.132H29.2009C25.1762 141.132 21.9009 137.857 21.9009 133.832V24.3325C21.9009 20.3078 25.1762 17.0325 29.2009 17.0325H43.8009V29.1993C43.8009 30.5449 44.8911 31.6325 46.2342 31.6325H99.7674C101.111 31.6325 102.201 30.5449 102.201 29.1993V17.0325H116.801C120.825 17.0325 124.101 20.3078 124.101 24.3325V133.832H124.101Z" fill="#37312E"/>
<path d="M111.929 21.8994H99.7624C98.4193 21.8994 97.3292 22.987 97.3292 24.3327V26.7659H48.6627V24.3327C48.6627 22.987 47.5725 21.8994 46.2295 21.8994H34.0627C30.038 21.8994 26.7627 25.1747 26.7627 29.1994V128.966C26.7627 132.991 30.038 136.266 34.0627 136.266H111.929C115.954 136.266 119.229 132.991 119.229 128.966V29.1994C119.229 25.1747 115.954 21.8994 111.929 21.8994ZM114.363 128.966C114.363 130.309 113.27 131.399 111.929 131.399H34.0627C32.7219 131.399 31.6295 130.309 31.6295 128.966V29.1994C31.6295 27.8563 32.7219 26.7662 34.0627 26.7662H43.7959V29.1994C43.7959 30.5451 44.8861 31.6327 46.2292 31.6327H99.7624C101.105 31.6327 102.196 30.5451 102.196 29.1994V26.7662H111.929C113.27 26.7662 114.362 27.8563 114.362 29.1994V128.966H114.363Z" fill="#37312E"/>
<path d="M75.4457 9.7334H70.5547C67.8779 9.7334 65.7002 11.9111 65.7002 14.5879V19.4789C65.7002 22.1557 67.8779 24.3334 70.5547 24.3334H75.4457C78.1225 24.3334 80.3002 22.1557 80.3002 19.4789V14.5879C80.3002 11.9114 78.1225 9.7334 75.4457 9.7334ZM70.567 19.4789L70.5547 14.6002L75.4334 14.5879L75.436 19.4666L70.567 19.4789Z" fill="#37312E"/>
</svg>
