<svg width="149" height="149" viewBox="0 0 149 149" fill="none" xmlns="http://www.w3.org/2000/svg">
<path d="M127.578 66.8485C127.323 66.8483 127.071 66.7998 126.835 66.7056L111.653 60.665C111.286 60.5195 110.97 60.2694 110.744 59.9458C110.518 59.6222 110.393 59.2394 110.383 58.8449C110.372 58.4504 110.479 58.0616 110.688 57.7269C110.897 57.3922 111.199 57.1263 111.558 56.9622C113.051 56.2752 114.223 55.0423 114.834 53.5171C115.144 52.7362 115.297 51.9018 115.285 51.0617C115.272 50.2216 115.094 49.3922 114.761 48.621C114.427 47.8498 113.945 47.1519 113.342 46.5672C112.738 45.9824 112.025 45.5224 111.244 45.2133C109.668 44.5864 107.908 44.6105 106.349 45.2801C104.791 45.9498 103.562 47.2104 102.932 48.7853C102.624 49.5361 102.467 50.3402 102.47 51.1518C102.473 51.9633 102.635 52.7664 102.949 53.515C103.105 53.8807 103.149 54.2845 103.076 54.6753C103.003 55.0662 102.816 55.4267 102.538 55.7114C102.261 55.9961 101.905 56.1923 101.516 56.2751C101.127 56.3579 100.723 56.3238 100.353 56.1769L85.1128 50.1203C84.8667 50.0226 84.6424 49.8774 84.4525 49.693C84.2626 49.5085 84.1109 49.2884 84.0062 49.0453C83.9015 48.8022 83.8457 48.5408 83.8421 48.2761C83.8385 48.0114 83.8872 47.7486 83.9852 47.5027L88.6807 35.6934C87.37 35.6861 86.0723 35.4327 84.8551 34.9464C83.4349 34.3761 82.1577 33.5001 81.1142 32.3806C80.0707 31.2611 79.2865 29.9255 78.8173 28.4688C78.3482 27.0121 78.2055 25.4699 78.3995 23.9518C78.5935 22.4337 79.1194 20.977 79.9399 19.6851C80.7603 18.3931 81.8552 17.2977 83.1467 16.4766C84.4382 15.6555 85.8946 15.1288 87.4126 14.934C88.9306 14.7392 90.4728 14.8811 91.9298 15.3495C93.3868 15.8179 94.7228 16.6014 95.8428 17.6443L100.55 5.81893C100.648 5.57305 100.794 5.34887 100.978 5.1592C101.163 4.96953 101.383 4.8181 101.626 4.71356C101.869 4.60903 102.13 4.55344 102.395 4.54998C102.66 4.54651 102.922 4.59524 103.168 4.69338L141.207 19.8129C142.678 20.3996 143.856 21.5454 144.483 22.9993C145.111 24.4532 145.136 26.0964 144.554 27.5689L129.452 65.5659C129.305 65.9435 129.048 66.268 128.713 66.4968C128.379 66.7256 127.983 66.8482 127.578 66.8485ZM116.503 58.2669L126.448 62.2175L140.807 26.091C140.99 25.6109 140.979 25.0782 140.775 24.6063C140.572 24.1344 140.192 23.7605 139.717 23.564L103.551 9.17949L98.259 22.519C98.1132 22.887 97.8621 23.2039 97.5371 23.43C97.2121 23.6561 96.8277 23.7814 96.432 23.7902C96.0362 23.799 95.6466 23.691 95.3119 23.4795C94.9772 23.2681 94.7122 22.9627 94.5501 22.6016C94.0295 21.461 93.1852 20.4985 92.1221 19.8338C91.059 19.1691 89.824 18.8315 88.5706 18.8629C87.3172 18.8942 86.1006 19.2933 85.0721 20.0104C84.0436 20.7275 83.2486 21.731 82.7857 22.8962C82.3228 24.0615 82.2126 25.337 82.4687 26.5644C82.7248 27.7918 83.3359 28.9168 84.2261 29.7997C85.1163 30.6826 86.2464 31.2845 87.4758 31.5304C88.7053 31.7764 89.9799 31.6556 91.1413 31.1832C91.5069 31.0326 91.9087 30.9931 92.2967 31.0695C92.6846 31.1458 93.0415 31.3347 93.3228 31.6126C93.6041 31.8904 93.7973 32.245 93.8785 32.6319C93.9596 33.0189 93.925 33.4212 93.779 33.7887L88.4713 47.1161L98.4423 51.0807C98.4491 49.3797 98.8714 47.7062 99.6724 46.2056C100.473 44.705 101.629 43.4228 103.038 42.4705C104.448 41.5182 106.068 40.9246 107.759 40.7414C109.451 40.5581 111.161 40.7908 112.741 41.4191C114.322 42.0475 115.725 43.0524 116.829 44.3466C117.933 45.6408 118.704 47.1851 119.075 48.8451C119.446 50.5052 119.406 52.2307 118.958 53.8717C118.51 55.5127 117.668 57.0194 116.505 58.2609L116.503 58.2669Z" fill="#37312E"/>
<path d="M120.608 87.1266C120.343 87.1278 120.081 87.0769 119.836 86.9768C119.592 86.8767 119.369 86.7294 119.181 86.5433C118.993 86.3572 118.844 86.1359 118.742 85.892C118.639 85.6482 118.586 85.3866 118.585 85.1222C118.584 84.8578 118.635 84.5957 118.735 84.351C118.835 84.1062 118.982 83.8836 119.168 83.6958C119.354 83.5079 119.576 83.3586 119.82 83.2563C120.063 83.1541 120.325 83.1008 120.589 83.0996H120.608C121.142 83.0996 121.654 83.3117 122.031 83.6894C122.409 84.067 122.621 84.5791 122.621 85.1131C122.621 85.6471 122.409 86.1593 122.031 86.5369C121.654 86.9145 121.142 87.1266 120.608 87.1266Z" fill="#37312E"/>
<path d="M99.7277 87.1266C99.1937 87.1293 98.6805 86.9197 98.301 86.544C97.9215 86.1683 97.7068 85.6572 97.7041 85.1232C97.7015 84.5892 97.911 84.076 98.2868 83.6965C98.6625 83.317 99.1736 83.1023 99.7076 83.0996H99.7277C100.262 83.0996 100.774 83.3117 101.151 83.6894C101.529 84.067 101.741 84.5791 101.741 85.1131C101.741 85.6471 101.529 86.1593 101.151 86.5369C100.774 86.9145 100.262 87.1266 99.7277 87.1266Z" fill="#37312E"/>
<path d="M99.7059 87.1364C99.174 87.1365 98.6637 86.926 98.2864 86.551C97.9092 86.176 97.6956 85.6669 97.6924 85.135C97.6901 84.7715 97.7862 84.414 97.9706 84.1007C98.155 83.7874 98.4208 83.5298 98.7397 83.3553C99.0587 83.1809 99.419 83.0961 99.7823 83.1098C100.146 83.1236 100.498 83.2356 100.803 83.4337C101.108 83.6318 101.354 83.9088 101.514 84.2352C101.674 84.5617 101.743 84.9253 101.713 85.2877C101.683 85.65 101.555 85.9975 101.344 86.2932C101.132 86.5889 100.845 86.8219 100.511 86.9673C100.258 87.0797 99.9833 87.1373 99.7059 87.1364Z" fill="#37312E"/>
<path d="M115.512 144.449H11.1271C9.24655 144.45 7.44264 143.704 6.11123 142.376C4.77981 141.048 4.02966 139.246 4.02539 137.366V32.9628C4.03285 31.0852 4.78468 29.2871 6.11598 27.963C7.44728 26.6388 9.24938 25.8967 11.1271 25.8994H63.2992C63.8332 25.8994 64.3454 26.1116 64.723 26.4892C65.1006 26.8668 65.3127 27.3789 65.3127 27.9129V48.789C65.3143 49.1862 65.1983 49.575 64.9794 49.9064C64.7605 50.2379 64.4485 50.4972 64.0826 50.6517C63.7167 50.8062 63.3133 50.8491 62.9231 50.7749C62.5329 50.7007 62.1734 50.5128 61.8897 50.2347C60.2703 48.6683 58.1023 47.7975 55.8492 47.8085C53.538 47.8085 51.3214 48.7266 49.6871 50.3609C48.0528 51.9952 47.1347 54.2117 47.1347 56.523C47.1347 58.8342 48.0528 61.0507 49.6871 62.685C51.3214 64.3193 53.538 65.2374 55.8492 65.2374C58.1009 65.2511 60.2687 64.384 61.8897 62.8212C62.1734 62.5432 62.5329 62.3553 62.9231 62.2811C63.3133 62.2069 63.7167 62.2497 64.0826 62.4043C64.4485 62.5588 64.7605 62.8181 64.9794 63.1495C65.1983 63.481 65.3143 63.8697 65.3127 64.2669V83.1094H80.3939C79.4815 81.1642 79.0749 79.0201 79.2118 76.8759C79.3486 74.7317 80.0246 72.6567 81.177 70.8433C82.3293 69.0299 83.9208 67.5368 85.804 66.5023C87.6871 65.4678 89.8009 64.9254 91.9495 64.9254C94.0981 64.9254 96.2119 65.4678 98.095 66.5023C99.9781 67.5368 101.57 69.0299 102.722 70.8433C103.874 72.6567 104.55 74.7317 104.687 76.8759C104.824 79.0201 104.417 81.1642 103.505 83.1094H120.562C121.096 83.1094 121.608 83.3215 121.985 83.6991C122.363 84.0767 122.575 84.5889 122.575 85.1229V137.366C122.576 139.241 121.833 141.04 120.509 142.368C119.184 143.696 117.387 144.445 115.512 144.449ZM11.1271 29.9264C10.3171 29.9227 9.53864 30.2402 8.96232 30.8093C8.38601 31.3785 8.0588 32.1529 8.05242 32.9628V137.366C8.05615 138.178 8.38186 138.956 8.95817 139.529C9.53449 140.102 10.3144 140.423 11.1271 140.422H115.512C116.319 140.418 117.092 140.094 117.662 139.521C118.231 138.948 118.55 138.173 118.548 137.366V87.1263H99.7257C99.3315 87.126 98.946 87.0099 98.6171 86.7926C98.2882 86.5752 98.0304 86.266 97.8756 85.9035C97.7208 85.5409 97.6758 85.1409 97.7463 84.753C97.8167 84.3651 97.9995 84.0065 98.2719 83.7215C99.2516 82.6894 99.9636 81.4332 100.346 80.0625C100.728 78.6918 100.769 77.2484 100.464 75.8584C100.16 74.4683 99.52 73.1739 98.6001 72.0883C97.6802 71.0027 96.5085 70.1588 95.1872 69.6305C93.866 69.1021 92.4355 68.9053 91.0206 69.0573C89.6058 69.2093 88.2497 69.7055 87.0709 70.5024C85.892 71.2993 84.9262 72.3728 84.2579 73.6291C83.5896 74.8854 83.2391 76.2862 83.237 77.7091C83.2171 79.9465 84.0862 82.1003 85.6532 83.6973C85.9304 83.9801 86.1181 84.3384 86.1927 84.7272C86.2674 85.1161 86.2257 85.5184 86.0729 85.8837C85.9201 86.249 85.663 86.5612 85.3337 86.7811C85.0044 87.0011 84.6176 87.1191 84.2216 87.1203H63.2992C62.7652 87.1203 62.253 86.9082 61.8754 86.5306C61.4978 86.1529 61.2857 85.6408 61.2857 85.1068V68.0564C59.3439 68.9646 57.2044 69.3682 55.0652 69.2298C52.926 69.0915 50.8563 68.4157 49.0477 67.265C47.2391 66.1142 45.75 64.5258 44.7184 62.6467C43.6868 60.7676 43.1459 58.6586 43.1459 56.5149C43.1459 54.3712 43.6868 52.2622 44.7184 50.3831C45.75 48.504 47.2391 46.9156 49.0477 45.7648C50.8563 44.6141 52.926 43.9383 55.0652 43.7999C57.2044 43.6616 59.3439 44.0652 61.2857 44.9734V29.9264H11.1271Z" fill="#37312E"/>
<path d="M63.3212 108.035C62.7871 108.035 62.275 107.823 61.8974 107.445C61.5198 107.067 61.3076 106.555 61.3076 106.021V85.135C61.3062 84.8706 61.3568 84.6084 61.4567 84.3636C61.5565 84.1187 61.7036 83.896 61.8896 83.708C62.2651 83.3283 62.7761 83.1133 63.3101 83.1104C63.8441 83.1074 64.3574 83.3168 64.7371 83.6923C65.1168 84.0678 65.3317 84.5788 65.3347 85.1128V106.011C65.336 106.276 65.2849 106.539 65.1843 106.785C65.0837 107.03 64.9356 107.253 64.7485 107.441C64.5614 107.629 64.339 107.779 64.094 107.88C63.8491 107.982 63.5864 108.035 63.3212 108.035Z" fill="#37312E"/>
<path d="M63.3368 144.369C62.8027 144.369 62.2906 144.157 61.913 143.779C61.5354 143.402 61.3232 142.889 61.3232 142.355V121.447C61.3232 120.913 61.5354 120.401 61.913 120.023C62.2906 119.646 62.8027 119.434 63.3368 119.434C63.8708 119.434 64.3829 119.646 64.7605 120.023C65.1381 120.401 65.3503 120.913 65.3503 121.447V142.355C65.3503 142.889 65.1381 143.402 64.7605 143.779C64.3829 144.157 63.8708 144.369 63.3368 144.369Z" fill="#37312E"/>
<path d="M63.321 87.1266H42.4852C41.9512 87.1266 41.439 86.9145 41.0614 86.5369C40.6838 86.1593 40.4717 85.6471 40.4717 85.1131C40.4717 84.5791 40.6838 84.067 41.0614 83.6894C41.439 83.3117 41.9512 83.0996 42.4852 83.0996H63.321C63.855 83.0996 64.3672 83.3117 64.7448 83.6894C65.1224 84.067 65.3345 84.5791 65.3345 85.1131C65.3345 85.6471 65.1224 86.1593 64.7448 86.5369C64.3672 86.9145 63.855 87.1266 63.321 87.1266Z" fill="#37312E"/>
<path d="M27.0099 87.1384H6.09554C5.56153 87.1384 5.04938 86.9262 4.67178 86.5486C4.29417 86.171 4.08203 85.6589 4.08203 85.1248C4.08203 84.5908 4.29417 84.0787 4.67178 83.7011C5.04938 83.3235 5.56153 83.1113 6.09554 83.1113H27.0099C27.5439 83.1113 28.0561 83.3235 28.4337 83.7011C28.8113 84.0787 29.0234 84.5908 29.0234 85.1248C29.0234 85.6589 28.8113 86.171 28.4337 86.5486C28.0561 86.9262 27.5439 87.1384 27.0099 87.1384Z" fill="#37312E"/>
<path d="M34.7069 105.325C32.2042 105.325 29.7568 104.588 27.6705 103.206C25.5843 101.824 23.9518 99.8569 22.977 97.5518C22.0023 95.2467 21.7285 92.7055 22.19 90.2457C22.6514 87.7859 23.8276 85.5166 25.5716 83.7216C25.9452 83.345 26.4523 83.131 26.9828 83.1262C27.5132 83.1213 28.0242 83.3261 28.4046 83.6958C28.785 84.0656 29.004 84.5706 29.0142 85.1009C29.0244 85.6313 28.8249 86.1443 28.4589 86.5284C27.2671 87.7555 26.4632 89.3065 26.1477 90.9878C25.8323 92.6691 26.0192 94.406 26.6851 95.9817C27.351 97.5574 28.4664 98.9019 29.892 99.8473C31.3177 100.793 32.9902 101.297 34.7008 101.298C37.0135 101.298 39.2318 100.38 40.8686 98.7461C42.5055 97.1123 43.4272 94.8958 43.4314 92.5831C43.4475 90.3271 42.5719 88.156 40.9951 86.5425C40.7974 86.3568 40.6392 86.133 40.5302 85.8846C40.4211 85.6363 40.3633 85.3684 40.3604 85.0972C40.3574 84.8259 40.4092 84.5569 40.5128 84.3062C40.6164 84.0555 40.7696 83.8283 40.9631 83.6382C41.1567 83.4482 41.3867 83.2992 41.6393 83.2003C41.8918 83.1013 42.1618 83.0544 42.4329 83.0624C42.7041 83.0704 42.9708 83.1331 43.2171 83.2467C43.4635 83.3603 43.6843 83.5225 43.8664 83.7236C46.1862 86.0909 47.4773 89.2787 47.4585 92.5931C47.4499 95.9706 46.1031 99.207 43.713 101.593C41.3229 103.98 38.0843 105.321 34.7069 105.325Z" fill="#37312E"/>
<path d="M70.7967 126.509C67.4879 126.51 64.3092 125.22 61.9372 122.913C61.7389 122.731 61.579 122.512 61.4668 122.268C61.3546 122.023 61.2925 121.759 61.2842 121.49C61.2758 121.222 61.3213 120.954 61.4181 120.703C61.5148 120.452 61.6609 120.223 61.8475 120.03C62.0341 119.836 62.2577 119.682 62.5048 119.576C62.752 119.471 63.0179 119.415 63.2867 119.414C63.5556 119.413 63.822 119.465 64.0702 119.569C64.3184 119.672 64.5434 119.824 64.732 120.015C65.9591 121.197 67.5061 121.993 69.1813 122.305C70.8564 122.616 72.586 122.429 74.1559 121.766C75.7257 121.104 77.0667 119.996 78.0127 118.579C78.9588 117.162 79.4683 115.498 79.4781 113.795C79.4879 112.091 78.9975 110.422 78.0678 108.994C77.1381 107.566 75.81 106.442 74.2478 105.762C72.6857 105.082 70.9584 104.875 69.2798 105.167C67.6012 105.459 66.0451 106.237 64.8045 107.405C64.5291 107.699 64.1718 107.904 63.7787 107.993C63.3857 108.082 62.9751 108.05 62.5999 107.903C62.2247 107.756 61.9023 107.5 61.6743 107.168C61.4463 106.836 61.3233 106.443 61.3211 106.04V106.022C61.3214 105.751 61.3761 105.484 61.4819 105.235C61.5878 104.986 61.7426 104.761 61.9372 104.574C63.4398 103.126 65.2747 102.07 67.2808 101.496C69.2869 100.923 71.403 100.851 73.4435 101.286C75.484 101.721 77.3866 102.651 78.9843 103.992C80.5821 105.334 81.8262 107.047 82.6075 108.982C83.3889 110.917 83.6836 113.013 83.4659 115.088C83.2481 117.163 82.5245 119.153 81.3586 120.883C80.1927 122.614 78.62 124.031 76.7786 125.012C74.9371 125.993 72.8831 126.507 70.7967 126.509Z" fill="#37312E"/>
</svg>
