<svg width="157" height="145" viewBox="0 0 157 145" fill="none" xmlns="http://www.w3.org/2000/svg">
<g clip-path="url(#clip0)">
<path d="M111.558 0H19.1425C9.22357 0.0118589 1.18569 7.43818 1.17285 16.6024V101.789C1.18569 110.954 9.22357 118.38 19.1425 118.392H47.3805V113.648H19.1425C12.0573 113.641 6.31537 108.335 6.30703 101.789V61.6661H22.7929C24.3142 61.5632 25.4575 60.3406 25.3462 58.9347C25.3247 58.6637 25.2566 58.3975 25.1443 58.1464C22.8628 53.3495 25.222 47.7521 30.4139 45.6442C35.6059 43.5363 41.6642 45.7159 43.9457 50.5128C45.1025 52.9451 45.1025 55.7141 43.9457 58.1464C43.3116 59.372 43.8732 60.8404 45.1997 61.4262C45.5427 61.5777 45.9172 61.6596 46.2971 61.6664H62.783V75.897C61.9349 75.7636 61.0762 75.6978 60.2159 75.7002C51.7092 75.6975 44.8111 82.0666 44.8079 89.9258C44.8057 95.5881 48.4371 100.713 54.0549 102.976L56.1086 98.6305C50.9083 96.5403 48.5263 90.9513 50.7883 86.1466C52.4203 82.68 56.1243 80.4396 60.2159 80.4437C61.6307 80.4434 63.0298 80.7165 64.3232 81.2454C65.6225 81.7692 67.1358 81.2208 67.7028 80.0203C67.844 79.7215 67.9169 79.3989 67.9172 79.0728V61.6661H80.9708C80.8248 62.4494 80.7517 63.243 80.7526 64.0379C80.768 70.7956 85.9115 76.6172 93.0747 77.9839L94.1015 73.3376C89.3261 72.4248 85.8974 68.5433 85.8868 64.0379C85.8865 62.7307 86.182 61.4381 86.7545 60.243C87.3215 59.0426 86.7279 57.6445 85.4286 57.1206C85.1051 56.9901 84.756 56.9228 84.403 56.9225H67.9172V44.8621C68.765 44.997 69.624 45.0646 70.4843 45.0637C78.991 45.0637 85.8868 38.6925 85.8868 30.833C85.8868 22.9736 78.991 16.6024 70.4843 16.6024C69.624 16.6015 68.765 16.6691 67.9172 16.804V4.74355H111.558C118.643 4.75125 124.385 10.0563 124.393 16.6024V56.9225H107.907C106.49 56.9231 105.341 57.9857 105.341 59.2955C105.342 59.6216 105.415 59.9442 105.556 60.243C106.128 61.4381 106.424 62.7307 106.424 64.0379H111.558C111.559 63.243 111.486 62.4494 111.34 61.6661H126.96C128.378 61.6661 129.527 60.6041 129.527 59.2943V16.6024C129.514 7.43818 121.477 0.0118589 111.558 0ZM70.4843 21.346C76.1553 21.346 80.7526 25.5935 80.7526 30.833C80.7526 36.0726 76.1553 40.3201 70.4843 40.3201C69.0695 40.3204 67.6704 40.0474 66.3769 39.5185C65.0777 38.9946 63.5644 39.5431 62.9974 40.7435C62.8562 41.0423 62.7833 41.3649 62.783 41.691V56.7257H49.7473C49.876 56.0067 49.9427 55.2795 49.9476 54.5508C49.9476 54.5081 49.9476 54.4701 49.9476 54.4274C49.9476 54.3848 49.9476 54.3776 49.9476 54.3539C49.9476 46.4945 43.0517 40.1233 34.545 40.1233C26.0383 40.1233 19.1425 46.4945 19.1425 54.3539C19.1425 54.3776 19.1425 54.4037 19.1425 54.4274C19.1425 54.4512 19.1425 54.5081 19.1425 54.5508C19.1473 55.2795 19.214 56.0067 19.3427 56.7257H6.30703V16.6024C6.31537 10.0563 12.0573 4.75125 19.1425 4.74355H62.783V19.9751C62.7836 21.2849 63.9337 22.3463 65.3514 22.3457C65.7043 22.3454 66.0535 22.2781 66.3769 22.1476C67.6704 21.6187 69.0695 21.3457 70.4843 21.346Z" fill="#37312E"/>
<path d="M149.712 101.943L128.13 88.2124L119.841 67.7511C119.347 66.5235 117.869 65.8988 116.54 66.3557C116.492 66.372 116.445 66.3897 116.399 66.4087L99.7126 73.2276C98.4617 73.7378 97.8636 75.0645 98.352 76.2445C98.6292 76.9086 98.8885 77.4114 99.1632 77.9332C99.4379 78.455 99.692 78.9435 100.003 79.7144C101.995 84.6337 99.3124 90.1167 93.9982 91.9835C88.6866 93.819 82.7701 91.3289 80.7832 86.4212C80.2848 85.1902 80.0689 83.8771 80.1488 82.5652C80.2232 81.2572 79.1357 80.141 77.72 80.0722C77.3651 80.055 77.0105 80.106 76.6781 80.2219L58.8419 86.4289C57.5176 86.8899 56.847 88.2542 57.3427 89.479L63.7451 105.282C62.8963 105.425 62.063 105.638 61.255 105.918C53.2665 108.668 49.2041 116.881 52.181 124.262C55.1578 131.642 64.047 135.396 72.0355 132.645C72.8579 132.362 73.6527 132.015 74.4113 131.606L79.0013 142.934C79.4986 144.161 80.9779 144.782 82.3058 144.323C82.3074 144.322 82.3086 144.322 82.3102 144.321L107.745 135.468C109.343 138.64 112.283 141.066 115.875 142.175L117.497 137.669C115.381 137.01 113.623 135.621 112.589 133.793L120.329 131.101C122.871 137.708 129.644 142.118 137.233 142.109V137.365C130.162 137.325 124.441 132.039 124.398 125.506C124.398 124.877 124.127 124.274 123.646 123.829L114.707 115.571C113.382 114.336 113.232 112.391 114.355 110.996C115.009 110.18 116.019 109.672 117.115 109.606C118.213 109.52 119.294 109.894 120.062 110.623L137.985 127.183L141.615 123.829L136.312 118.929C137.618 115.319 137.538 111.403 136.083 107.841L131.272 95.9705L146.785 105.839C148.842 107.173 150.067 109.348 150.069 111.669V142.305H155.203V111.669C155.199 107.793 153.15 104.163 149.712 101.943ZM131.275 109.504C131.984 111.245 132.241 113.116 132.025 114.966L123.692 107.27C120.252 104.011 114.605 103.945 111.077 107.123C107.55 110.3 107.479 115.518 110.918 118.777C110.97 118.827 111.023 118.876 111.077 118.925L119.197 126.426L82.9187 139.051L78.0258 126.972C77.7213 126.221 77.0269 125.664 76.18 125.49C75.9971 125.452 75.8104 125.433 75.623 125.433C74.9514 125.432 74.3064 125.675 73.826 126.109C69.7039 129.707 63.2047 129.536 59.3101 125.728C55.4155 121.919 55.6 115.914 59.7224 112.316C60.6921 111.47 61.8307 110.806 63.075 110.362C63.8923 110.082 64.7459 109.904 65.6139 109.831C66.1479 109.77 66.6863 109.754 67.2235 109.781C68.6392 109.85 69.8474 108.845 69.9215 107.537C69.9401 107.212 69.8859 106.886 69.7623 106.582L63.0571 90.0408L75.2816 85.7882C76.886 93.5065 84.9589 98.5617 93.3128 97.0796C94.1664 96.9281 95.0045 96.7102 95.8183 96.428C103.778 93.6376 107.802 85.4292 104.821 78.0609C104.585 77.4775 104.372 77.015 104.166 76.6023L115.975 71.771L131.275 109.504Z" fill="#37312E"/>
</g>
<defs>
<clipPath id="clip0">
<rect width="156.373" height="144.475" fill="white"/>
</clipPath>
</defs>
</svg>
