<svg width="140" height="140" viewBox="0 0 140 140" fill="none" xmlns="http://www.w3.org/2000/svg">
<g clip-path="url(#clip0)">
<path d="M137.006 35.2328C134.912 32.9937 131.953 31.7096 128.889 31.7096C128.049 31.7096 127.219 31.8031 126.41 31.9885V17.9055C126.41 15.5258 124.474 13.5898 122.094 13.5898H106.788C105.755 13.5898 104.782 14.0935 104.187 14.9373C103.592 15.7792 103.443 16.8612 103.788 17.8316C104.117 18.7597 104.245 19.7372 104.167 20.7364C103.898 24.1693 101.104 26.9321 97.6679 27.1629C95.7002 27.2931 93.8258 26.6303 92.3938 25.291C90.9602 23.9503 90.1705 22.1317 90.1705 20.1701C90.1705 19.3662 90.3059 18.5784 90.5728 17.8281C90.917 16.8599 90.7683 15.7798 90.1749 14.9387C89.5785 14.0938 88.6054 13.5893 87.5712 13.5893H53.6529C53.9039 12.4945 53.9859 11.3671 53.8965 10.2238C53.4697 4.77563 49.0362 0.391358 43.5836 0.025227C40.4681 -0.184498 37.5038 0.870144 35.2334 2.99365C32.9943 5.08735 31.7102 8.04592 31.7102 11.1103C31.7102 11.95 31.8037 12.7799 31.9891 13.5896H17.9061C15.5264 13.5896 13.5904 15.5255 13.5904 17.9052V33.2116C13.5904 34.2446 14.0941 35.217 14.9379 35.8128C15.7798 36.407 16.8618 36.5565 17.8322 36.2117C18.7605 35.8822 19.7373 35.7546 20.7372 35.833C24.1702 36.1018 26.933 38.8955 27.1638 42.3318C27.2959 44.3005 26.6311 46.1736 25.2918 47.6058C23.9512 49.0394 22.1326 49.8291 20.1709 49.8291C19.367 49.8291 18.5793 49.6938 17.829 49.4269C16.861 49.0824 15.7806 49.2314 14.9396 49.8247C14.0946 50.4211 13.5902 51.3943 13.5902 52.4281V86.3465C12.4953 86.0957 11.3679 86.0137 10.2247 86.1029C4.77649 86.5294 0.391946 90.9629 0.0260886 96.4158C-0.18309 99.5299 0.871006 102.495 2.99451 104.766C5.08821 107.005 8.04678 108.289 11.1112 108.289C11.9509 108.289 12.7808 108.196 13.5904 108.011V122.093C13.5904 124.473 15.5264 126.409 17.9061 126.409H33.2127C34.2458 126.409 35.2181 125.905 35.8139 125.061C36.4084 124.22 36.5574 123.138 36.2126 122.167C35.8831 121.239 35.7557 120.262 35.8339 119.262C36.1027 115.829 38.8964 113.066 42.3326 112.836C44.3003 112.705 46.1744 113.368 47.6067 114.708C49.0403 116.048 49.83 117.867 49.83 119.828C49.83 120.632 49.6946 121.42 49.4278 122.17C49.0835 123.139 49.2323 124.219 49.8256 125.06C50.422 125.905 51.3951 126.409 52.429 126.409H86.3473C86.0961 127.504 86.0143 128.631 86.1037 129.775C86.5305 135.223 90.964 139.607 96.4166 139.973C96.6761 139.991 96.9345 140 97.1913 140C100.02 140 102.685 138.951 104.767 137.005C107.006 134.911 108.29 131.953 108.29 128.888C108.29 128.049 108.197 127.219 108.011 126.409H122.094C124.474 126.409 126.41 124.473 126.41 122.094V106.787C126.41 105.754 125.906 104.782 125.062 104.186C124.22 103.592 123.139 103.443 122.168 103.787C121.239 104.117 120.262 104.245 119.263 104.166C115.83 103.897 113.067 101.104 112.836 97.6673C112.704 95.6985 113.369 93.8255 114.708 92.3932C116.049 90.9596 117.867 90.1699 119.829 90.1699C120.633 90.1699 121.421 90.3053 122.171 90.5722C123.139 90.9167 124.219 90.7677 125.06 90.1743C125.905 89.5779 126.41 88.6048 126.41 87.5707V53.6523C127.505 53.9033 128.632 53.9853 129.775 53.8959C135.223 53.4691 139.608 49.0356 139.974 43.583C140.183 40.4689 139.129 37.5034 137.006 35.2328ZM20.1709 53.9307C23.2353 53.9307 26.1936 52.6463 28.2876 50.4072C30.4108 48.1366 31.4652 45.1709 31.256 42.057C30.8899 36.6041 26.5054 32.1706 21.0571 31.7441C19.9136 31.6549 18.7871 31.7364 17.6917 31.9877V17.9055C17.6917 17.7874 17.7879 17.6914 17.9058 17.6914H33.2122C34.246 17.6914 35.2192 17.1869 35.8156 16.342C36.4092 15.5009 36.5579 14.4208 36.2137 13.4523C35.9468 12.7023 35.8115 11.9142 35.8115 11.1103C35.8115 9.14869 36.6009 7.33007 38.0345 5.98968C39.4668 4.6504 41.3403 3.98622 43.3085 4.11774C46.7445 4.34852 49.5382 7.11132 49.8073 10.544C49.8855 11.544 49.7581 12.5212 49.4283 13.4493C49.0838 14.42 49.2328 15.502 49.8272 16.3439C50.4231 17.1874 51.3951 17.6914 52.4282 17.6914H67.9489V33.2119C67.9489 34.2449 68.4526 35.2173 69.2964 35.8131C70.1383 36.4075 71.2201 36.5568 72.1913 36.212C73.1193 35.8825 74.0971 35.7554 75.0957 35.8333C78.529 36.1021 81.2918 38.8961 81.5223 42.3321C81.6544 44.3008 80.9896 46.1738 79.6504 47.6061C78.3097 49.0397 76.4911 49.8291 74.5294 49.8291C73.7258 49.8291 72.9375 49.6938 72.1875 49.4269C71.2192 49.0829 70.1392 49.2314 69.2983 49.8247C68.4534 50.4211 67.9489 51.3943 67.9489 52.4281V67.9486H53.6518C53.8372 67.139 53.9307 66.3091 53.9307 65.4694C53.9307 62.405 52.6464 59.4467 50.4075 57.3527C48.1369 55.2295 45.1723 54.1743 42.0573 54.3846C36.6044 54.7507 32.1709 59.1352 31.7444 64.5832C31.655 65.7264 31.7367 66.8535 31.988 67.9486H17.692V53.6515C18.5016 53.8371 19.3312 53.9307 20.1709 53.9307ZM67.9495 122.308H53.6523C53.8377 121.498 53.9312 120.668 53.9312 119.829C53.9312 116.764 52.6469 113.806 50.4077 111.712C48.1371 109.589 45.1726 108.536 42.0576 108.744C36.6047 109.11 32.1712 113.494 31.7447 118.943C31.6552 120.085 31.737 121.213 31.9883 122.308H17.9061C17.7879 122.308 17.692 122.212 17.692 122.094V106.788C17.692 105.754 17.1875 104.781 16.3426 104.184C15.5015 103.591 14.4214 103.442 13.4529 103.786C12.7029 104.053 11.9148 104.188 11.1112 104.188C9.14955 104.188 7.33093 103.399 5.99027 101.965C4.65098 100.533 3.98626 98.6601 4.11833 96.6914C4.34911 93.2554 7.11191 90.4617 10.5449 90.1926C11.544 90.1147 12.5218 90.2419 13.4499 90.5716C14.4208 90.9167 15.5026 90.7671 16.3445 90.1727C17.188 89.5769 17.692 88.6048 17.692 87.5717V72.051H33.2127C34.2455 72.051 35.2178 71.5473 35.8137 70.7035C36.4081 69.8616 36.5574 68.7796 36.2126 67.8086C35.8831 66.8809 35.7557 65.9033 35.8339 64.9042C36.1027 61.4712 38.8964 58.7084 42.3326 58.4776C44.3003 58.3466 46.1744 59.0103 47.6067 60.3496C49.0403 61.6902 49.8297 63.5088 49.8297 65.4705C49.8297 66.2744 49.6944 67.0621 49.4275 67.8125C49.0832 68.7807 49.232 69.861 49.8256 70.7019C50.422 71.5468 51.3951 72.0513 52.429 72.0513H67.9495V86.3484C67.1398 86.163 66.31 86.0695 65.4702 86.0695C62.4058 86.0695 59.4475 87.3538 57.3536 89.5927C55.2303 91.8636 54.176 94.829 54.3854 97.9429C54.7516 103.396 59.1361 107.829 64.584 108.256C65.7267 108.345 66.8541 108.263 67.9495 108.012V122.308ZM122.308 86.3473C121.499 86.1619 120.669 86.0684 119.829 86.0684C116.765 86.0684 113.807 87.3527 111.713 89.5919C109.589 91.8625 108.535 94.8282 108.744 97.9421C109.11 103.395 113.495 107.828 118.943 108.255C120.087 108.344 121.213 108.263 122.309 108.011V122.094C122.309 122.212 122.212 122.308 122.094 122.308H106.788C105.754 122.308 104.781 122.812 104.185 123.657C103.591 124.498 103.442 125.578 103.787 126.547C104.053 127.297 104.189 128.085 104.189 128.888C104.189 130.85 103.399 132.669 101.966 134.009C100.533 135.349 98.6607 136.013 96.6914 135.881C93.2554 135.651 90.4617 132.888 90.1927 129.455C90.1145 128.455 90.2419 127.478 90.5717 126.55C90.9162 125.579 90.7672 124.497 90.1724 123.655C89.5766 122.812 88.6046 122.308 87.5715 122.308H72.0508V106.787C72.0508 105.754 71.5471 104.782 70.7033 104.186C69.8613 103.592 68.7796 103.442 67.8084 103.787C66.8806 104.117 65.9028 104.244 64.904 104.166C61.471 103.897 58.7082 101.103 58.4774 97.667C58.3453 95.6983 59.01 93.8252 60.3493 92.3927C61.69 90.9591 63.5086 90.1697 65.47 90.1697C66.2739 90.1697 67.0616 90.305 67.8119 90.5719C68.7802 90.9164 69.8603 90.7674 70.7013 90.1738C71.5463 89.5774 72.0508 88.6042 72.0508 87.5704V72.0499H86.3479C86.1625 72.8595 86.069 73.6894 86.069 74.5291C86.069 77.5935 87.3533 80.5518 89.5922 82.6458C91.6739 84.5924 94.3391 85.6402 97.1677 85.6402C97.4245 85.6402 97.6832 85.6314 97.9424 85.6139C103.395 85.2478 107.829 80.8633 108.255 75.4153C108.345 74.2721 108.263 73.145 108.012 72.0499H122.308V86.3473ZM135.882 43.3082C135.651 46.7442 132.888 49.5379 129.455 49.807C128.455 49.8852 127.478 49.7578 126.55 49.428C125.58 49.0835 124.498 49.2328 123.656 49.8272C122.812 50.423 122.308 51.3951 122.308 52.4281V67.9489H106.788C105.755 67.9489 104.782 68.4526 104.187 69.2964C103.592 70.1383 103.443 71.2203 103.788 72.1913C104.117 73.119 104.245 74.0966 104.166 75.0957C103.898 78.5287 101.104 81.2915 97.6676 81.5223C95.7 81.653 93.8255 80.9896 92.3933 79.6503C90.9597 78.3097 90.1702 76.491 90.1702 74.5297C90.1702 73.7258 90.3056 72.938 90.5725 72.1877C90.9167 71.2195 90.768 70.1391 90.1744 69.2983C89.578 68.4534 88.6048 67.9489 87.571 67.9489H72.0505V53.6518C72.8601 53.8371 73.69 53.9307 74.5297 53.9307C77.5941 53.9307 80.5524 52.6463 82.6464 50.4074C84.7696 48.1368 85.824 45.1714 85.6148 42.0572C85.2487 36.6044 80.8641 32.1706 75.4159 31.7443C74.273 31.6549 73.1456 31.7367 72.0505 31.988V17.6914H86.3476C86.1622 18.501 86.0687 19.3309 86.0687 20.1703C86.0687 23.2347 87.353 26.193 89.5922 28.287C91.8628 30.4102 94.828 31.4638 97.9424 31.2554C103.395 30.8893 107.829 26.5048 108.255 21.0566C108.345 19.9136 108.263 18.7862 108.012 17.6911H122.094C122.212 17.6911 122.308 17.7874 122.308 17.9052V33.2116C122.308 34.2455 122.812 35.2186 123.657 35.815C124.498 36.4086 125.579 36.5568 126.547 36.2131C127.297 35.9462 128.085 35.8109 128.889 35.8109C130.851 35.8109 132.669 36.6003 134.01 38.0339C135.349 39.4664 136.014 41.3395 135.882 43.3082Z" fill="#37312E"/>
</g>
<defs>
<clipPath id="clip0">
<rect width="140" height="140" fill="white"/>
</clipPath>
</defs>
</svg>
