<svg width="59" height="59" viewBox="0 0 59 59" fill="none" xmlns="http://www.w3.org/2000/svg">
<g clip-path="url(#clip0)">
<path d="M42.0909 0.484375H7.22238C3.47994 0.489152 0.447226 3.48091 0.442383 7.1728V41.4911C0.447226 45.183 3.47994 48.1748 7.22238 48.1796H17.8767V46.2686H7.22238C4.54912 46.2655 2.38267 44.1283 2.37952 41.4911V25.3271H8.59968C9.17368 25.2857 9.60506 24.7931 9.56305 24.2267C9.55494 24.1176 9.52927 24.0103 9.4869 23.9092C8.62608 21.9767 9.51619 19.7217 11.4751 18.8725C13.4341 18.0233 15.7199 18.9014 16.5807 20.8339C17.0172 21.8138 17.0172 22.9293 16.5807 23.9092C16.3415 24.4029 16.5533 24.9945 17.0539 25.2305C17.1833 25.2915 17.3246 25.3245 17.4679 25.3272H23.6881V31.0602C23.3681 31.0064 23.0441 30.9799 22.7195 30.9809C19.5099 30.9798 16.9072 33.5456 16.906 36.7118C16.9052 38.9929 18.2753 41.0573 20.3949 41.969L21.1698 40.2185C19.2077 39.3765 18.309 37.1249 19.1624 35.1893C19.7782 33.7928 21.1757 32.8902 22.7195 32.8918C23.2533 32.8917 23.7812 33.0017 24.2692 33.2148C24.7594 33.4258 25.3304 33.2049 25.5443 32.7213C25.5976 32.6009 25.6251 32.471 25.6252 32.3396V25.3271H30.5504C30.4953 25.6427 30.4677 25.9624 30.4681 26.2826C30.4739 29.005 32.4145 31.3503 35.1172 31.9009L35.5046 30.0291C33.7029 29.6613 32.4092 28.0977 32.4052 26.2826C32.4051 25.756 32.5166 25.2353 32.7326 24.7538C32.9465 24.2702 32.7225 23.707 32.2323 23.4959C32.1103 23.4434 31.9786 23.4163 31.8454 23.4161H25.6252V18.5575C25.9451 18.6118 26.2692 18.639 26.5938 18.6387C29.8034 18.6387 32.4052 16.072 32.4052 12.9057C32.4052 9.73949 29.8034 7.1728 26.5938 7.1728C26.2692 7.17245 25.9451 7.19968 25.6252 7.25402V2.39535H42.0909C44.7642 2.39846 46.9306 4.53565 46.9338 7.1728V23.4161H40.7136C40.1787 23.4164 39.7453 23.8444 39.7455 24.3721C39.7457 24.5035 39.7731 24.6334 39.8264 24.7538C40.0424 25.2353 40.1539 25.756 40.1538 26.2826H42.0909C42.0913 25.9624 42.0637 25.6427 42.0086 25.3271H47.9023C48.4372 25.3271 48.8709 24.8993 48.8709 24.3716V7.1728C48.8661 3.48091 45.8334 0.489152 42.0909 0.484375ZM26.5938 9.08378C28.7335 9.08378 30.4681 10.7949 30.4681 12.9057C30.4681 15.0165 28.7335 16.7277 26.5938 16.7277C26.06 16.7278 25.5321 16.6178 25.0441 16.4047C24.5539 16.1937 23.9829 16.4147 23.769 16.8983C23.7157 17.0187 23.6882 17.1486 23.6881 17.28V23.3368H18.7697C18.8182 23.0472 18.8434 22.7542 18.8452 22.4606C18.8452 22.4434 18.8452 22.4282 18.8452 22.411C18.8452 22.3938 18.8452 22.3909 18.8452 22.3813C18.8452 19.2151 16.2434 16.6484 13.0338 16.6484C9.8242 16.6484 7.22238 19.2151 7.22238 22.3813C7.22238 22.3909 7.22238 22.4014 7.22238 22.411C7.22238 22.4205 7.22238 22.4434 7.22238 22.4606C7.22419 22.7542 7.24938 23.0472 7.29793 23.3368H2.37952V7.1728C2.38267 4.53565 4.54912 2.39846 7.22238 2.39535H23.6881V8.53151C23.6883 9.05918 24.1222 9.48676 24.6571 9.48652C24.7903 9.4864 24.922 9.45929 25.0441 9.40674C25.5321 9.19367 26.06 9.08366 26.5938 9.08378Z" fill="#C8C8C8"/>
<path d="M56.4862 41.553L48.3434 36.0217L45.2159 27.7787C45.0293 27.2841 44.4717 27.0325 43.9703 27.2165C43.9524 27.2231 43.9346 27.2303 43.9171 27.2379L37.6214 29.9849C37.1494 30.1905 36.9237 30.725 37.108 31.2003C37.2126 31.4679 37.3104 31.6704 37.4141 31.8806C37.5177 32.0908 37.6136 32.2877 37.7308 32.5982C38.4827 34.58 37.4704 36.7889 35.4653 37.5409C33.4612 38.2804 31.2289 37.2772 30.4792 35.3001C30.2912 34.8042 30.2097 34.2752 30.2399 33.7467C30.268 33.2197 29.8577 32.7701 29.3235 32.7424C29.1896 32.7354 29.0558 32.756 28.9304 32.8027L22.2007 35.3032C21.7011 35.4889 21.448 36.0386 21.6351 36.5319L24.0507 42.8984C23.7305 42.9559 23.4161 43.0416 23.1112 43.1545C20.0971 44.2625 18.5644 47.5711 19.6875 50.5445C20.8107 53.5178 24.1646 55.0299 27.1787 53.9219C27.489 53.8078 27.7889 53.6678 28.0751 53.5034L29.8069 58.0668C29.9946 58.561 30.5527 58.8115 31.0537 58.6263C31.0543 58.6261 31.0548 58.6259 31.0554 58.6257L40.652 55.0589C41.2548 56.3371 42.3641 57.3142 43.7195 57.761L44.3316 55.9456C43.5333 55.6802 42.8698 55.1209 42.4797 54.3843L45.3999 53.2998C46.3592 55.9615 48.9145 57.738 51.778 57.7343V55.8233C49.1102 55.8072 46.9515 53.6776 46.9351 51.0458C46.9351 50.7924 46.8329 50.5495 46.6513 50.3703L43.2788 47.0433C42.7787 46.5457 42.7223 45.7625 43.1461 45.2002C43.3928 44.8716 43.7737 44.6669 44.1873 44.6402C44.6015 44.6058 45.0094 44.7563 45.2992 45.0501L52.0618 51.7214L53.4313 50.3703L51.4303 48.3963C51.9233 46.9419 51.8929 45.3643 51.3441 43.9294L49.529 39.1471L55.382 43.1229C56.1579 43.6601 56.6201 44.5364 56.6208 45.4715V57.8136H58.558V45.4715C58.5566 43.9101 57.7834 42.4476 56.4862 41.553ZM49.5299 44.5991C49.7975 45.3007 49.8944 46.0544 49.8127 46.7996L46.6688 43.6991C45.371 42.3861 43.2402 42.3597 41.9092 43.6398C40.5783 44.9201 40.5515 47.0222 41.8492 48.3351C41.8689 48.3551 41.8889 48.3749 41.9092 48.3944L44.9728 51.4166L31.285 56.5026L29.4389 51.6363C29.324 51.3339 29.062 51.1094 28.7425 51.0392C28.6735 51.0241 28.603 51.0163 28.5323 51.0162C28.2789 51.016 28.0355 51.1138 27.8543 51.2885C26.299 52.7381 23.8468 52.6695 22.3774 51.1351C20.9079 49.6008 20.9776 47.1817 22.533 45.7321C22.8988 45.3911 23.3284 45.1238 23.7979 44.9449C24.1063 44.8322 24.4283 44.7603 24.7558 44.7309C24.9573 44.7065 25.1604 44.6998 25.3631 44.7108C25.8973 44.7384 26.3531 44.3336 26.3811 43.8067C26.3881 43.6757 26.3676 43.5446 26.321 43.4219L23.7911 36.7583L28.4035 35.0451C29.0088 38.1545 32.0547 40.191 35.2067 39.5939C35.5288 39.5329 35.845 39.4451 36.152 39.3314C39.1554 38.2073 40.6736 34.9005 39.5488 31.9321C39.4597 31.6971 39.3793 31.5107 39.3018 31.3445L43.7572 29.3981L49.5299 44.5991Z" fill="#C8C8C8"/>
</g>
<defs>
<clipPath id="clip0">
<rect width="59" height="58.2032" fill="white" transform="translate(0 0.484375)"/>
</clipPath>
</defs>
</svg>
