<svg width="60" height="60" viewBox="0 0 60 60" fill="none" xmlns="http://www.w3.org/2000/svg">
<path d="M32.4094 53.7356C32.3193 53.7356 32.2295 53.719 32.1441 53.6862C32.0378 53.6452 29.5823 52.6932 26.1389 50.8152C22.9919 52.669 20.5448 53.6215 20.4018 53.6768C20.2311 53.7426 20.0417 53.7426 19.871 53.6768C19.669 53.5991 14.8691 51.7303 9.9934 48.0599C3.45559 43.1384 0 37.326 0 31.2517C0 25.4109 2.59191 22.4161 4.90351 20.9073C5.29725 16.0795 7.18764 12.1835 10.3845 9.62198C13.0869 7.45659 16.7055 6.26416 20.574 6.26416C26.4942 6.26416 30.8545 11.056 32.4094 13.0448C33.9642 11.056 38.3242 6.26416 44.2444 6.26416C51.5124 6.26416 60 10.6233 60 22.9085C60 31.2248 55.2554 39.1922 46.2796 45.9492C39.5613 51.0063 32.9529 53.5793 32.6746 53.6862C32.5893 53.719 32.4992 53.7356 32.4094 53.7356ZM27.6054 49.9261C29.9598 51.1696 31.7572 51.9347 32.4091 52.2011C33.7126 51.6662 39.6044 49.131 45.4188 44.7485C51.3969 40.242 58.5231 32.795 58.5231 22.9085C58.5231 11.7256 51.147 7.74103 44.2444 7.74103C37.7169 7.74103 33.0707 14.6312 33.0246 14.7009C32.8879 14.9071 32.6572 15.0306 32.4097 15.0309C32.4097 15.0309 32.4094 15.0309 32.4091 15.0309C32.1621 15.0309 31.9315 14.9071 31.7944 14.7015C31.748 14.6321 27.0858 7.74133 20.574 7.74133C14.4155 7.74133 7.64281 11.0076 6.47668 20.0578C8.02237 19.3779 9.7636 19.0232 11.5867 19.0232C15.7585 19.0232 18.8718 22.2386 20.1363 23.7982C21.4008 22.2386 24.514 19.0232 28.6859 19.0232C33.0692 19.0232 36.8202 21.0787 38.7212 24.5221C38.7218 24.523 38.7224 24.5242 38.723 24.5254C38.7239 24.5266 38.7245 24.5278 38.7251 24.5289C39.7553 26.3936 40.2781 28.6589 40.2781 31.2614C40.2778 39.8878 33.6278 46.0845 27.6054 49.9261ZM5.87057 22.0419C2.99539 23.8333 1.47687 27.0142 1.47687 31.2517C1.47687 43.9637 17.8385 51.2331 20.136 52.1907C22.4334 51.232 38.796 43.9516 38.796 31.2517C38.796 28.9052 38.3363 26.8822 37.4301 25.2393C35.0701 20.9706 30.5326 20.5095 28.6915 20.5095C24.0848 20.5095 20.7899 25.3962 20.7571 25.4455C20.6204 25.6517 20.3894 25.7757 20.1419 25.7757C19.8944 25.7757 19.6634 25.6517 19.5266 25.4455C19.4941 25.3967 16.1836 20.5095 11.5923 20.5095C10.1532 20.5095 8.0138 20.765 5.99285 21.9831C5.95327 22.0067 5.91281 22.0262 5.87057 22.0419Z" fill="#C8C8C8"/>
</svg>
