<svg width="66" height="66" viewBox="0 0 66 66" fill="none" xmlns="http://www.w3.org/2000/svg">
<g clip-path="url(#clip0)">
<path d="M64.1294 39.2323H64.1404H64.1294ZM7.69892 55.5498H21.9991C24.133 55.5498 26.2858 55.387 28.3967 55.0658L42.7341 52.8867C43.172 52.8218 43.6273 52.8416 44.0849 52.7405C45.0639 52.5985 45.9154 52.1608 46.6523 51.4545C46.6798 51.4293 46.7084 51.405 46.737 51.3819L63.4384 38.3765C63.84 38.0345 63.9192 37.4393 63.6155 37.0158C62.7036 35.7464 62.246 35.1072 57.7117 37.491L48.2308 43.2879C45.4829 44.7521 39.995 44.6487 35.9866 44.5749C35.7721 44.5716 35.5632 44.5672 35.3629 44.5639C34.7425 44.5881 34.2486 44.5629 34.022 44.5474C33.4313 44.5045 32.9792 44.0029 33 43.4111C33.0208 42.8193 33.5071 42.3496 34.0989 42.3496C34.4497 42.3496 34.8458 42.354 35.277 42.3616C36.5486 42.3023 37.797 42.0096 38.0721 41.5344C38.2306 41.2595 38.038 40.6676 37.5561 39.9493C36.2427 37.9891 33.9713 36.8186 31.4798 36.8186H27.1886C24.3836 36.8186 21.6754 35.9408 19.5612 34.348C16.4768 32.0237 10.3233 35.5129 7.69866 37.4028V55.5498H7.69892ZM21.9991 57.7498H6.59897C5.99179 57.7498 5.49902 57.257 5.49902 56.6499V36.8497C5.49902 36.5077 5.65747 36.1853 5.92915 35.9774C6.32179 35.676 15.618 28.6216 20.886 32.5916C22.6207 33.8983 24.8592 34.6189 27.189 34.6189H31.4801C34.7065 34.6189 37.6622 36.1534 39.3848 38.7252C40.3286 40.1333 40.5673 41.3675 40.0976 42.4003C42.8476 42.3563 45.7165 42.1364 47.1421 41.3783L56.6263 35.5791C61.5181 33.0051 63.4738 33.0458 65.4022 35.7331C66.3801 37.096 66.1282 39.0035 64.8313 40.0793C64.8225 40.0859 64.8148 40.0936 64.805 40.1001L48.1322 53.0846C47.0686 54.0878 45.8134 54.7148 44.4988 54.8996C44.0313 55.0052 43.5044 55.0668 42.9863 55.0734L28.7269 57.2414C26.5068 57.5782 24.243 57.7498 21.9991 57.7498Z" fill="#C8C8C8"/>
<path d="M2.20003 58.8498H5.50001V34.6497H2.20003V58.8498ZM6.60009 61.0498H1.09995C0.49159 61.0498 0 60.5571 0 59.9499V33.5497C0 32.9425 0.491721 32.4497 1.09995 32.4497H6.59996C7.20714 32.4497 7.69991 32.9425 7.69991 33.5497V59.9499C7.70004 60.5571 7.20727 61.0498 6.60009 61.0498Z" fill="#C8C8C8"/>
<path d="M18.6996 47.8501C18.0924 47.8501 17.5996 47.3573 17.5996 46.7502C17.5996 43.9946 19.6555 42.3501 23.0996 42.3501H34.0996C34.7068 42.3501 35.1996 42.8429 35.1996 43.45C35.1996 44.0572 34.7068 44.55 34.0996 44.55H23.0996C19.7996 44.55 19.7996 46.2055 19.7996 46.75C19.7996 47.3573 19.3067 47.8501 18.6996 47.8501Z" fill="#C8C8C8"/>
<path d="M35.1986 22.5498C35.0138 22.5498 34.8257 22.5035 34.6541 22.4046C34.126 22.1032 33.9435 21.4311 34.2449 20.9041L38.645 13.2041C38.822 12.8939 39.14 12.6881 39.4952 12.654C39.8538 12.6188 40.2026 12.7629 40.4347 13.0336L46.1712 19.7261L54.1407 9.76217C54.5203 9.28696 55.2133 9.21213 55.6863 9.59062C56.1615 9.97015 56.2385 10.662 55.859 11.1372L47.0589 22.1372C46.8543 22.3924 46.5463 22.5443 46.2184 22.5498C45.895 22.5663 45.5782 22.4145 45.3648 22.1659L39.7802 15.6506L36.1545 21.9954C35.9522 22.3507 35.5804 22.5498 35.1986 22.5498Z" fill="#C8C8C8"/>
<path d="M55.0003 17.0498C54.3931 17.0498 53.9003 16.557 53.9003 15.9498V11.7917L49.7159 12.6277C49.1175 12.7476 48.5399 12.3603 48.4222 11.7653C48.3023 11.1702 48.6884 10.5905 49.2846 10.4717L54.7846 9.37173C55.108 9.30568 55.4423 9.38929 55.6976 9.59937C55.9528 9.80841 56.1002 10.1197 56.1002 10.4497V15.9497C56.1002 16.5569 55.6075 17.0498 55.0003 17.0498Z" fill="#C8C8C8"/>
<path d="M34.0995 11.5495H29.6996C29.0924 11.5495 28.5996 11.0567 28.5996 10.4496C28.5996 9.84238 29.0924 9.34961 29.6996 9.34961H34.0996C34.7068 9.34961 35.1996 9.84238 35.1996 10.4496C35.1996 11.0567 34.7068 11.5495 34.0995 11.5495Z" fill="#C8C8C8"/>
<path d="M60.5 24.7497H56.1C55.4928 24.7497 55 24.2569 55 23.6498C55 23.0426 55.4928 22.5498 56.1 22.5498H60.5C61.1072 22.5498 61.6 23.0426 61.6 23.6498C61.6 24.2569 61.1072 24.7497 60.5 24.7497Z" fill="#C8C8C8"/>
<path d="M26.4001 26.9499H40.7002C41.0676 26.9499 41.4108 27.1336 41.6154 27.4394L45.1002 32.6667L48.5849 27.4394C48.7895 27.1336 49.1327 26.9499 49.5001 26.9499H63.8002V7.14974H26.4001V26.9499ZM45.1003 35.7499C44.7329 35.7499 44.3897 35.5661 44.1851 35.2604L40.1118 29.1498H25.3001C24.693 29.1498 24.2002 28.657 24.2002 28.0498V6.04966C24.2002 5.44248 24.693 4.94971 25.3001 4.94971H64.9004C65.5076 4.94971 66.0004 5.44248 66.0004 6.04966V28.0498C66.0004 28.657 65.5076 29.1498 64.9004 29.1498H50.0888L46.0154 35.2604C45.8109 35.5661 45.4676 35.7499 45.1003 35.7499Z" fill="#C8C8C8"/>
</g>
<defs>
<clipPath id="clip0">
<rect width="66" height="66" fill="white"/>
</clipPath>
</defs>
</svg>
