<svg width="47" height="47" viewBox="0 0 47 47" fill="none" xmlns="http://www.w3.org/2000/svg">
<path d="M23.5 0C10.542 0 0 10.542 0 23.5C0 36.458 10.542 47 23.5 47C36.458 47 47 36.458 47 23.5C47 10.542 36.458 0 23.5 0ZM23.5 44.2461C12.0605 44.2461 2.75391 34.9394 2.75391 23.5C2.75391 12.0605 12.0605 2.75391 23.5 2.75391C34.9394 2.75391 44.2461 12.0605 44.2461 23.5C44.2461 34.9394 34.9394 44.2461 23.5 44.2461Z" fill="#C8C8C8"/>
<path d="M23.4999 26.3682C19.6499 26.3682 16.0291 28.4198 14.0505 31.7224C13.6596 32.3747 13.8717 33.2204 14.524 33.6112C15.1764 34.0023 16.0219 33.79 16.4128 33.1377C17.8968 30.6609 20.6124 29.1221 23.4999 29.1221C26.3955 29.1221 29.1151 30.6674 30.5972 33.155C30.8549 33.5873 31.3121 33.8274 31.7814 33.8274C32.0211 33.8274 32.264 33.7647 32.4848 33.6332C33.1382 33.2438 33.3521 32.3988 32.9629 31.7454C30.9868 28.4285 27.3607 26.3682 23.4999 26.3682Z" fill="#C8C8C8"/>
<path d="M20.4956 18.7002C20.7419 17.9808 20.3582 17.1978 19.6388 16.9515C18.9192 16.7052 18.1364 17.0889 17.8901 17.8083C17.4391 19.1261 16.2001 20.0116 14.8071 20.0116C13.4132 20.0116 12.1738 19.1253 11.7233 17.8062C11.4774 17.0867 10.695 16.7025 9.97517 16.9483C9.25549 17.1941 8.8715 17.9768 9.11724 18.6964C9.94855 21.1302 12.2351 22.7655 14.8071 22.7655C17.3772 22.7655 19.6632 21.1318 20.4956 18.7002Z" fill="#C8C8C8"/>
<path d="M37.0335 16.9515C36.3144 16.7054 35.5313 17.0889 35.2848 17.8083C34.8336 19.1261 33.5946 20.0116 32.2017 20.0116C30.8077 20.0116 29.5683 19.1253 29.1178 17.8062C28.872 17.0867 28.0897 16.7025 27.3697 16.9483C26.65 17.1941 26.266 17.9768 26.5118 18.6964C27.3431 21.1302 29.6297 22.7655 32.2017 22.7655C34.7718 22.7655 37.0578 21.1319 37.8903 18.7003C38.1366 17.9808 37.753 17.1979 37.0335 16.9515Z" fill="#C8C8C8"/>
</svg>
